<svg width="105" height="122" viewBox="0 0 105 122" fill="none" xmlns="http://www.w3.org/2000/svg">
<g clip-path="url(#clip0_151_180)">
<path d="M104.823 35.775C104.822 33.7289 104.399 31.921 103.542 30.3693C102.7 28.8434 101.44 27.5645 99.7492 26.5534C85.7936 18.2425 71.8245 9.95714 57.8735 1.63784C54.1123 -0.604757 50.4656 -0.523 46.7324 1.75179C41.1776 5.13517 13.367 21.5912 5.07979 26.5487C1.66688 28.5893 0.00615234 31.7121 0.00533203 35.7712C0 52.4847 0.00533203 69.1979 0 85.9119C0 87.913 0.406465 89.6858 1.22555 91.2142C2.0676 92.7862 3.34564 94.1003 5.07527 95.1343C13.3629 100.092 41.1772 116.547 46.7307 119.931C50.4656 122.207 54.1123 122.288 57.8747 120.045C71.8262 111.725 85.7961 103.44 99.7537 95.1292C101.483 94.0956 102.761 92.7807 103.603 91.21C104.421 89.6816 104.829 87.9088 104.829 85.9072C104.829 85.9072 104.829 52.489 104.823 35.775Z" fill="#7E7F82"/>
<path d="M52.5747 60.6786L1.22559 91.2142C2.06764 92.7863 3.34568 94.1003 5.07531 95.1343C13.3629 100.092 41.1773 116.547 46.7308 119.931C50.4657 122.207 54.1124 122.288 57.8747 120.045C71.8262 111.725 85.7961 103.44 99.7537 95.1292C101.483 94.0956 102.761 92.7807 103.603 91.21L52.5747 60.6786Z" fill="#37383C"/>
<path d="M104.823 35.775C104.822 33.7289 104.399 31.921 103.542 30.3693L52.5747 60.6786L103.603 91.21C104.421 89.6816 104.828 87.9088 104.829 85.9072C104.829 85.9072 104.829 52.489 104.823 35.775Z" fill="#4D4E50"/>
<path d="M52.6872 20.5984C67.1017 20.5984 79.6866 28.6836 86.4274 40.7014L86.3617 40.5857L69.4023 50.6711C66.0609 44.828 59.9353 40.8848 52.9086 40.8036L52.6872 40.8024C41.9717 40.8024 33.2844 49.7742 33.2844 60.8413C33.2844 64.4604 34.2186 67.853 35.8433 70.7832C39.1878 76.8134 45.475 80.8806 52.6872 80.8806C59.944 80.8806 66.2671 76.7617 69.5945 70.667L69.5137 70.8133L86.4476 80.9453C79.7807 92.8613 67.3682 100.921 53.1213 101.082L52.6872 101.085C38.2274 101.085 25.6066 92.9496 18.8828 80.8683C15.6003 74.9704 13.7222 68.1327 13.7222 60.8413C13.7222 38.6161 31.167 20.5984 52.6872 20.5984Z" fill="#F3F3F3"/>
</g>
<defs>
<clipPath id="clip0_151_180">
<rect width="105" height="122" fill="white"/>
</clipPath>
</defs>
</svg>
