<svg width="106" height="120" viewBox="0 0 106 120" fill="none" xmlns="http://www.w3.org/2000/svg">
<g clip-path="url(#clip0_151_187)">
<path d="M105.822 35.1885C105.821 33.176 105.393 31.3977 104.528 29.8714C103.678 28.3706 102.406 27.1127 100.699 26.1181C86.6107 17.9435 72.5086 9.79391 58.4246 1.61099C54.6277 -0.594843 50.9463 -0.514427 47.1775 1.72307C41.5698 5.05099 13.4943 21.2372 5.12816 26.1135C1.68275 28.1206 0.00621094 31.1922 0.00538281 35.1847C0 51.6243 0.00538281 68.0635 0 84.5035C0 86.4718 0.410336 88.2156 1.23722 89.7189C2.08729 91.2652 3.37751 92.5577 5.12361 93.5747C13.4902 98.451 41.5694 114.636 47.1758 117.965C50.9463 120.203 54.6277 120.283 58.4259 118.077C72.5102 109.893 86.6132 101.744 100.704 93.5697C102.45 92.5531 103.74 91.2597 104.59 89.7147C105.416 88.2114 105.827 86.4677 105.827 84.4989C105.827 84.4989 105.827 51.6285 105.822 35.1885Z" fill="#7E7F82"/>
<path d="M53.0754 59.6839L1.2373 89.7189C2.08737 91.2652 3.37759 92.5577 5.12369 93.5747C13.4902 98.451 41.5695 114.636 47.1759 117.965C50.9463 120.203 54.6278 120.283 58.426 118.077C72.5103 109.893 86.6133 101.744 100.704 93.5697C102.45 92.5531 103.74 91.2597 104.59 89.7147L53.0754 59.6839Z" fill="#37383C"/>
<path d="M105.821 35.1885C105.821 33.176 105.393 31.3976 104.528 29.8714L53.0752 59.6839L104.59 89.7147C105.416 88.2114 105.826 86.4676 105.827 84.4989C105.827 84.4989 105.827 51.6285 105.821 35.1885Z" fill="#4D4E50"/>
<path d="M83.596 48.4558V54.0698H89.1749V48.4558H91.9644V54.0698H97.5433V56.8769H91.9644V62.4909H97.5433V65.2979H91.9644V70.912H89.1749V65.2979H83.596V70.912H80.8065V65.2979H75.2275V62.4909H80.8065V56.8769H75.2275V54.0698H80.8065V48.4558H83.596ZM89.1749 56.8769H83.596V62.4909H89.1749V56.8769Z" fill="white"/>
<path d="M53.1892 20.2608C67.7409 20.2608 80.4457 28.2134 87.2507 40.0341L87.1843 39.9204L70.0634 49.8405C66.6902 44.0931 60.5063 40.2146 53.4126 40.1347L53.1892 40.1335C42.3716 40.1335 33.6015 48.9582 33.6015 59.8439C33.6015 63.4037 34.5447 66.7406 36.1848 69.6228C39.5612 75.5542 45.9082 79.5547 53.1892 79.5547C60.5151 79.5547 66.8983 75.5033 70.2575 69.5086L70.1759 69.6524L87.2711 79.6183C80.5407 91.3389 68.01 99.267 53.6274 99.425L53.1892 99.4274C38.5916 99.4274 25.8506 91.4258 19.0628 79.5426C15.749 73.7414 13.853 67.0158 13.853 59.8439C13.853 37.983 31.464 20.2608 53.1892 20.2608Z" fill="#F3F3F3"/>
</g>
<defs>
<clipPath id="clip0_151_187">
<rect width="106" height="120" fill="white"/>
</clipPath>
</defs>
</svg>
