<svg width="246" height="123" viewBox="0 0 246 123" fill="none" xmlns="http://www.w3.org/2000/svg">
<path d="M233.708 103.126L201.377 112.089L169.135 103.138L161.95 22.55H240.901L233.708 103.126Z" fill="#F3F3F3"/>
<path d="M201.426 105.238L227.551 97.9949L233.697 29.1394H201.426V105.238Z" fill="#F3F3F3"/>
<path d="M201.425 59.0283H178.421L179.307 68.912H201.425V59.0283Z" fill="#22242A"/>
<path d="M201.391 39.0232H176.642L177.54 48.9071H201.425V39.0232H201.391Z" fill="#22242A"/>
<path d="M201.382 84.7091L190.374 81.7368L189.671 73.854H184.322H179.749L181.134 89.373L201.38 94.9935L201.425 94.9809V84.6976L201.382 84.7091Z" fill="#22242A"/>
<path d="M215.319 48.9071L214.42 59.0283H201.392V68.912H213.562L212.415 81.7305L201.392 84.7058V94.9887L221.654 89.373L221.803 87.7032L224.125 61.6823L224.366 59.0283L226.151 39.0232H201.392V48.9071H215.319Z" fill="#22242A"/>
<path d="M29.52 40.1633H64.9586V54.983H44.3398V69.8029H64.9586V84.6226H29.52V40.1633Z" fill="#F3F3F3"/>
<path d="M72.0464 40.1633H107.485V53.05H86.8662V55.6274H107.485V85.267H72.0464V71.7359H92.6652V69.1585H72.0464V40.1633Z" fill="#F3F3F3"/>
<path d="M114.573 40.1633H150.011V53.05H129.393V55.6274H150.011V85.267H114.573V71.7359H135.192V69.1585H114.573V40.1633Z" fill="#F3F3F3"/>
</svg>
