<svg width="121" height="141" viewBox="0 0 121 141" fill="none" xmlns="http://www.w3.org/2000/svg">
<path d="M92.7581 131.575L60.427 140.539L28.185 131.588L21 51H99.9507L92.7581 131.575Z" fill="#F3F3F3"/>
<path d="M60.4756 133.688L86.6007 126.445L92.7472 57.5894H60.4756V133.688Z" fill="#F3F3F3"/>
<path d="M60.4751 87.4783H37.4712L38.357 97.362H60.4751V87.4783Z" fill="#22242A"/>
<path d="M60.4411 67.4731H35.6914L36.5899 77.3571H60.4753V67.4731H60.4411Z" fill="#22242A"/>
<path d="M60.432 113.159L49.4243 110.187L48.7206 102.304H43.3718H38.7988L40.1835 117.823L60.4298 123.443L60.4753 123.431V113.148L60.432 113.159Z" fill="#22242A"/>
<path d="M74.3687 77.3571L73.4693 87.4782H60.4414V97.3619H72.6122L71.465 110.18L60.4414 113.156V123.439L80.7037 117.823L80.8524 116.153L83.175 90.1323L83.4161 87.4782L85.2005 67.4731H60.4414V77.3571H74.3687Z" fill="#22242A"/>
<path d="M0 0H35.4386V14.8197H14.8198V29.6395H35.4386V44.4592H0V0Z" fill="#F3F3F3"/>
<path d="M42.5264 0H77.9649V12.8867H57.3461V15.4641H77.9649V45.1036H42.5264V31.5726H63.1452V28.9952H42.5264V0Z" fill="#F3F3F3"/>
<path d="M85.0527 0H120.491V12.8867H99.8725V15.4641H120.491V45.1036H85.0527V31.5726H105.672V28.9952H85.0527V0Z" fill="#F3F3F3"/>
</svg>
