<svg width="14" height="17" viewBox="0 0 14 17" fill="none" xmlns="http://www.w3.org/2000/svg">
<path d="M4.16455 12.4706H9.70253M4.16455 8.94115H4.95569M4.16455 5.41174H6.53797" stroke="#22242A" stroke-linecap="round" stroke-linejoin="round"/>
<path d="M1 14.6765V2.32353C1 1.97251 1.12503 1.63586 1.34758 1.38765C1.57013 1.13944 1.87197 1 2.18671 1H9.9019C10.0277 1.00012 10.1484 1.05598 10.2373 1.15529L12.7278 3.93294C12.7721 3.98226 12.8072 4.04087 12.8311 4.10538C12.855 4.16988 12.8672 4.23903 12.8671 4.30882V14.6765C12.8671 15.0275 12.7421 15.3641 12.5195 15.6123C12.297 15.8606 11.9951 16 11.6804 16H2.18671C1.87197 16 1.57013 15.8606 1.34758 15.6123C1.12503 15.3641 1 15.0275 1 14.6765Z" stroke="#22242A" stroke-linecap="round" stroke-linejoin="round"/>
<path d="M9.70264 1V4C9.70264 4.14041 9.75265 4.27507 9.84167 4.37435C9.93069 4.47364 10.0514 4.52941 10.1773 4.52941H12.8672" stroke="#22242A" stroke-linecap="round" stroke-linejoin="round"/>
</svg>
