<svg width="115" height="117" viewBox="0 0 115 117" fill="none" xmlns="http://www.w3.org/2000/svg">
<g clip-path="url(#clip0_151_203)">
<path d="M0 0H115V117H0V0Z" fill="#22242A"/>
<path d="M20.4964 74.7497C19.6834 74.7497 18.9923 74.4742 18.4233 73.923C17.8543 73.3575 17.5696 72.6859 17.5693 71.9084C17.5693 71.1168 17.8538 70.4383 18.4229 69.8728C18.9922 69.3073 19.6834 69.0245 20.4964 69.0245C21.323 69.0245 22.0209 69.3073 22.5903 69.8728C23.1733 70.4383 23.4647 71.1168 23.4644 71.9084C23.4644 72.6856 23.173 73.3572 22.5903 73.923C22.0212 74.4745 21.3235 74.7502 20.4969 74.7502M53.0024 74.2836H47.7173L33.7924 51.9325C33.4451 51.3765 33.1523 50.7871 32.9182 50.1729H32.7961C32.9045 50.8231 32.9587 52.2155 32.9587 54.3502V74.2831H28.2832V43.875H33.9142L47.3714 65.695C47.9407 66.6 48.3067 67.2221 48.4693 67.5616H48.5506C48.4152 66.756 48.3476 65.3917 48.3476 63.4688V43.875H53.0024V74.2836ZM75.771 74.2836H59.4069V43.875H75.1206V48.1588H64.245V56.7678H74.267V61.0301H64.245V70.0213H75.771V74.2836ZM99.028 48.1588H90.6523V74.2836H85.8142V48.1588H77.4587V43.875H99.0275L99.028 48.1588Z" fill="#22242A"/>
<g clip-path="url(#clip1_151_203)">
<rect width="115" height="117" transform="translate(1.94922 0.991516)" fill="#F3F3F3"/>
<path d="M0.974609 0.991516H115.975V117.992H0.974609V0.991516Z" fill="#F3F3F3"/>
<path d="M22.4457 75.7413C21.6326 75.7413 20.9415 75.4657 20.3725 74.9145C19.8035 74.349 19.5189 73.6775 19.5186 72.8999C19.5186 72.1083 19.8031 71.4298 20.3721 70.8643C20.9414 70.2988 21.6326 70.016 22.4457 70.016C23.2722 70.016 23.9702 70.2988 24.5395 70.8643C25.1226 71.4298 25.414 72.1083 25.4137 72.8999C25.4137 73.6772 25.1223 74.3487 24.5395 74.9145C23.9705 75.466 23.2727 75.7417 22.4461 75.7417M54.9516 75.2751H49.6665L35.7416 52.924C35.3943 52.368 35.1015 51.7786 34.8675 51.1644H34.7453C34.8537 51.8146 34.9079 53.207 34.9079 55.3417V75.2746H30.2324V44.8665H35.8634L49.3206 66.6866C49.8899 67.5915 50.2559 68.2136 50.4185 68.5531H50.4998C50.3645 67.7475 50.2968 66.3832 50.2968 64.4604V44.8665H54.9516V75.2751ZM77.7202 75.2751H61.3561V44.8665H77.0698V49.1503H66.1942V57.7594H76.2162V62.0216H66.1942V71.0128H77.7202V75.2751ZM100.977 49.1503H92.6015V75.2751H87.7634V49.1503H79.4079V44.8665H100.977L100.977 49.1503Z" fill="#37383C"/>
</g>
</g>
<defs>
<clipPath id="clip0_151_203">
<rect width="115" height="117" fill="white"/>
</clipPath>
<clipPath id="clip1_151_203">
<rect width="115" height="117" fill="white" transform="translate(1.94922 0.991516)"/>
</clipPath>
</defs>
</svg>
