<svg width="128" height="132" viewBox="0 0 128 132" fill="none" xmlns="http://www.w3.org/2000/svg">
<g clip-path="url(#clip0_151_200)">
<path d="M125.586 60.1185L69.6995 2.48967C66.4834 -0.82989 61.2631 -0.82989 58.0427 2.48967L46.4378 14.4572L61.1591 29.6385C64.5803 28.4466 68.5029 29.246 71.2303 32.0587C73.9704 34.8887 74.74 38.9686 73.5561 42.5083L87.7437 57.1393C91.1762 55.9198 95.1367 56.7092 97.8781 59.5406C101.709 63.4902 101.709 69.8918 97.8781 73.8443C94.0454 77.7968 87.8378 77.7968 84.0037 73.8443C81.1218 70.8695 80.4097 66.5042 81.869 62.8428L68.6378 49.1982L68.6364 85.105C69.5703 85.583 70.4523 86.2188 71.2303 87.0183C75.0617 90.9679 75.0617 97.3695 71.2303 101.325C67.3976 105.276 61.1872 105.276 57.3601 101.325C53.5288 97.3695 53.5288 90.9679 57.3601 87.0183C58.3067 86.0436 59.4022 85.3064 60.5707 84.811V48.5696C59.4022 48.0772 58.3081 47.3443 57.3601 46.3623C54.4572 43.373 53.7592 38.9802 55.2465 35.3044L40.7358 20.3374L2.41577 59.852C-0.804605 63.1745 -0.804605 68.5579 2.41577 71.8775L58.3025 129.508C61.5201 132.827 66.739 132.827 69.9607 129.508L125.586 72.1454C128.805 68.8244 128.805 63.4381 125.586 60.1185Z" fill="#F3F3F3"/>
</g>
<defs>
<clipPath id="clip0_151_200">
<rect width="128" height="132" fill="white"/>
</clipPath>
</defs>
</svg>
