<svg width="18" height="19" viewBox="0 0 18 19" fill="none" xmlns="http://www.w3.org/2000/svg">
<path d="M6.72626 14.3272C2.98938 15.4582 2.98938 12.442 1.49463 12.065M11.9579 16.5893V13.6711C11.9859 13.3116 11.9378 12.9501 11.8167 12.6108C11.6955 12.2714 11.5042 11.962 11.2554 11.703C13.6021 11.4391 16.0685 10.5418 16.0685 6.42461C16.0683 5.37182 15.6669 4.3594 14.9474 3.59689C15.2881 2.67581 15.264 1.65772 14.8801 0.75409C14.8801 0.75409 13.9982 0.49017 11.9579 1.8701C10.2449 1.40169 8.43924 1.40169 6.72626 1.8701C4.68593 0.49017 3.80402 0.75409 3.80402 0.75409C3.42015 1.65772 3.39606 2.67581 3.73676 3.59689C3.0119 4.36505 2.61011 5.38662 2.61569 6.44724C2.61569 10.5342 5.08204 11.4316 7.4288 11.7256C7.18291 11.982 6.99327 12.2877 6.87223 12.6229C6.75119 12.9581 6.70146 13.3153 6.72626 13.6711V16.5893" stroke="#22242A" stroke-linecap="round" stroke-linejoin="round"/>
</svg>
