<svg width="51" height="51" viewBox="0 0 51 51" fill="none" xmlns="http://www.w3.org/2000/svg">
<path d="M19.2692 40.0202C8.96915 43.1378 8.96915 34.8241 4.84912 33.7849M33.6893 46.2555V38.2119C33.7666 37.2209 33.6339 36.2246 33.3 35.2892C32.9661 34.3539 32.4387 33.501 31.7529 32.7872C38.2213 32.0598 45.0194 29.5865 45.0194 18.2382C45.0188 15.3364 43.9125 12.5458 41.9293 10.4441C42.8684 7.90532 42.802 5.09911 41.7439 2.60842C41.7439 2.60842 39.3131 1.88097 33.6893 5.6845C28.9678 4.39342 23.9907 4.39342 19.2692 5.6845C13.6454 1.88097 11.2146 2.60842 11.2146 2.60842C10.1565 5.09911 10.0901 7.90532 11.0292 10.4441C9.03121 12.5614 7.92374 15.3772 7.93914 18.3006C7.93914 29.5657 14.7372 32.039 21.2056 32.8496C20.5279 33.5562 20.0052 34.3989 19.6715 35.3228C19.3379 36.2467 19.2008 37.2311 19.2692 38.2119V46.2555" stroke="white" stroke-width="3" stroke-linecap="round" stroke-linejoin="round"/>
</svg>
