<svg width="46" height="48" viewBox="0 0 46 48" fill="none" xmlns="http://www.w3.org/2000/svg">
<path d="M17.1551 39.1018C7.00246 42.1748 7.00246 33.98 2.94141 32.9557M31.3688 45.2478V37.3194C31.445 36.3425 31.3142 35.3605 30.9851 34.4385C30.656 33.5166 30.1361 32.6759 29.4601 31.9723C35.836 31.2553 42.5367 28.8174 42.5367 17.6315C42.5362 14.7712 41.4457 12.0206 39.4909 9.94898C40.4166 7.44653 40.3511 4.68048 39.3082 2.22544C39.3082 2.22544 36.9122 1.5084 31.3688 5.25749C26.7149 3.9849 21.8091 3.9849 17.1551 5.25749C11.6118 1.5084 9.21574 2.22544 9.21574 2.22544C8.17281 4.68048 8.10736 7.44653 9.03299 9.94898C7.06364 12.036 5.97202 14.8115 5.9872 17.693C5.9872 28.7969 12.6879 31.2348 19.0638 32.0338C18.3958 32.7303 17.8805 33.5609 17.5517 34.4716C17.2228 35.3822 17.0877 36.3526 17.1551 37.3194V45.2478" stroke="#22242A" stroke-width="5" stroke-linecap="round" stroke-linejoin="round"/>
</svg>
