<svg width="283" height="144" viewBox="0 0 283 144" fill="none" xmlns="http://www.w3.org/2000/svg">
<path d="M14.8574 51.54H28.2999V65.052H40.5939V51.54H54.0364V92.46H40.5939V78.78H28.2999V92.46H14.8574V51.54ZM71.7098 65.112H59.8544V51.5424H96.9651V65.112H85.1263V92.4648H71.6838V65.112H71.7098ZM102.856 51.54H116.872L125.494 65.94L134.107 51.54H148.103V92.46H134.717V72.1752L125.473 86.7264H125.242L116.03 72.1776V92.4624H102.88L102.856 51.54ZM154.81 51.54H168.253V78.96H187.155V92.4864H154.813L154.81 51.54Z" fill="#F3F3F3"/>
<path d="M193.548 28.944H268.159L261.362 106.435L230.81 115.056L200.34 106.447L193.548 28.944Z" fill="#F3F3F3"/>
<path d="M255.549 101.503L261.358 35.2823H230.881V108.468L255.549 101.503Z" fill="#F3F3F3"/>
<path d="M218.499 64.0272L217.646 54.2928H230.881V44.7888H207.462L209.981 73.5336H230.881V64.0296L218.499 64.0272ZM210.373 78.288L211.681 93.216L230.815 98.6208L230.857 98.6088V88.7208L230.817 88.7328L220.44 85.8528L219.775 78.2688H214.721L210.373 78.288Z" fill="#22242A"/>
<path d="M252.309 66.576L252.537 64.0224H230.827V73.5264H242.328L241.243 85.8552L230.827 88.716V98.604L249.976 93.204L250.118 91.596L252.309 66.576ZM230.848 54.2928H253.41L254.247 44.7648H230.848V54.2448V54.2928Z" fill="#22242A"/>
</svg>
