<svg width="176" height="143" viewBox="0 0 176 143" fill="none" xmlns="http://www.w3.org/2000/svg">
<path d="M0 0H13.7314V14.8497H26.2895V0H40.0209V44.971H26.2895V29.9367H13.7314V44.971H0V0ZM58.074 14.9156H45.9639V0.00263615H83.8722V14.9156H71.7789V44.9763H58.0476V14.9156H58.074ZM89.8899 0H104.207L113.014 15.8256L121.812 0H136.109V44.971H122.436V22.678L112.992 38.6698H112.756L103.347 22.6807V44.9736H89.914L89.8899 0ZM142.96 0H156.692V30.1345H176V45H142.963L142.96 0Z" fill="#F3F3F3"/>
<path d="M113.648 128.835L119.799 59.6245H87.5288V136.114L113.648 128.835Z" fill="#F3F3F3"/>
<path d="M48 53H127L119.803 133.99L87.4538 143L55.1916 134.003L48 53Z" fill="#F3F3F3"/>
<path d="M74.4187 89.6672L73.5148 79.4933H87.5284V69.5602H62.7324L65.3993 99.6028H87.5284V89.6697L74.4187 89.6672ZM65.8138 104.572L67.1997 120.174L87.4585 125.823L87.5034 125.81V115.476L87.461 115.488L76.4738 112.478L75.7697 104.552H70.4184L65.8138 104.572Z" fill="#22242A"/>
<path d="M110.218 92.3311L110.46 89.6622H87.4717V99.5954H99.6499L98.5013 112.481L87.4717 115.471V125.805L107.748 120.161L107.898 118.481L110.218 92.3311ZM87.4942 79.4933H111.384L112.27 69.5352H87.4942V79.4432V79.4933Z" fill="#22242A"/>
</svg>
