<svg width="88" height="92" viewBox="0 0 88 92" fill="none" xmlns="http://www.w3.org/2000/svg">
<g clip-path="url(#clip0_151_282)">
<rect width="88" height="92" fill="#22242A"/>
<path d="M0 0H88V92H0V0Z" fill="#F3F3F3"/>
<path d="M23.3751 76.8268L30.1095 72.566C31.4087 74.9742 32.5906 77.0118 35.4254 77.0118C38.1428 77.0118 39.856 75.9005 39.856 71.5779V42.1818H48.1258V71.7002C48.1258 80.6549 43.105 84.7307 35.7799 84.7307C29.1644 84.7307 25.3243 81.1487 23.375 76.826" fill="#F3F3F3"/>
<path d="M52.6177 75.9004L59.3512 71.8245C61.1238 74.8509 63.4276 77.0739 67.5032 77.0739C70.9298 77.0739 73.1148 75.2828 73.1148 72.8126C73.1148 69.8483 70.8703 68.7983 67.0896 67.0697L65.0227 66.1427C59.0562 63.4877 55.0983 60.1529 55.0983 53.1126C55.0983 46.6282 59.8239 41.6875 67.2081 41.6875C72.4654 41.6875 76.246 43.6021 78.9629 48.6044L72.5241 52.9271C71.1063 50.2718 69.5709 49.2222 67.2082 49.2222C64.7863 49.2222 63.2503 50.8278 63.2503 52.9271C63.2503 55.5209 64.7863 56.5711 68.3301 58.1768L70.3974 59.1031C77.427 62.2529 81.3849 65.4638 81.3849 72.689C81.3849 80.4708 75.5369 84.7315 67.6806 84.7315C60.0014 84.7315 55.0392 80.9029 52.6177 75.9004Z" fill="#F3F3F3"/>
<g clip-path="url(#clip1_151_282)">
<rect width="88" height="92" fill="#F3F3F3"/>
<path d="M0 0H88V92H0V0Z" fill="#F3F3F3"/>
<path d="M23.3751 76.8268L30.1095 72.566C31.4087 74.9742 32.5906 77.0118 35.4254 77.0118C38.1428 77.0118 39.856 75.9005 39.856 71.5779V42.1818H48.1258V71.7002C48.1258 80.6549 43.105 84.7307 35.7799 84.7307C29.1644 84.7307 25.3243 81.1487 23.375 76.826" fill="#22242A"/>
<path d="M52.6177 75.9004L59.3512 71.8245C61.1238 74.8509 63.4276 77.0739 67.5032 77.0739C70.9298 77.0739 73.1148 75.2828 73.1148 72.8126C73.1148 69.8483 70.8703 68.7983 67.0896 67.0697L65.0227 66.1427C59.0562 63.4877 55.0983 60.1529 55.0983 53.1126C55.0983 46.6282 59.8239 41.6875 67.2081 41.6875C72.4654 41.6875 76.246 43.6021 78.9629 48.6044L72.5241 52.9271C71.1063 50.2718 69.5709 49.2222 67.2082 49.2222C64.7863 49.2222 63.2503 50.8278 63.2503 52.9271C63.2503 55.5209 64.7863 56.5711 68.3301 58.1768L70.3974 59.1031C77.427 62.2529 81.3849 65.4638 81.3849 72.689C81.3849 80.4708 75.5369 84.7315 67.6806 84.7315C60.0014 84.7315 55.0392 80.9029 52.6177 75.9004Z" fill="#22242A"/>
</g>
</g>
<defs>
<clipPath id="clip0_151_282">
<rect width="88" height="92" fill="white"/>
</clipPath>
<clipPath id="clip1_151_282">
<rect width="88" height="92" fill="white"/>
</clipPath>
</defs>
</svg>
