<svg width="136" height="141" viewBox="0 0 136 141" fill="none" xmlns="http://www.w3.org/2000/svg">
<g clip-path="url(#clip0_151_177)">
<path d="M49.3937 109.011C49.3937 109.011 44.1661 112.307 53.0274 113.249C63.6949 114.659 69.3771 114.426 81.1836 112.073C83.5565 113.58 86.0661 114.841 88.6764 115.84C62.1139 127.614 28.5006 115.135 49.3937 109.011ZM45.9936 93.7077C45.9936 93.7077 40.3156 98.1801 49.1726 99.1274C60.7539 100.304 69.8362 100.537 85.5102 97.2459C87.0345 98.8488 88.9008 100.058 90.9587 100.775C58.9392 110.663 23.0606 101.714 45.9936 93.7077ZM108.668 120.542C108.668 120.542 112.527 123.838 104.355 126.429C89.1397 131.143 40.5451 132.553 26.9196 126.429C22.1511 124.314 31.2334 121.251 34.1446 120.78C37.0984 120.075 38.6921 120.075 38.6921 120.075C33.4646 116.307 3.94839 127.843 23.7066 131.134C77.9792 140.317 122.715 127.134 108.634 120.542H108.668ZM51.8501 77.6954C51.8501 77.6954 27.0981 83.8201 42.9931 85.9351C49.8059 86.878 63.2019 86.6401 75.6926 85.7016C85.9097 84.7586 96.1352 82.8816 96.1352 82.8816C96.1352 82.8816 92.5014 84.5295 90.0024 86.1775C64.7999 93.0071 16.4264 89.9448 30.2814 82.8816C42.0879 76.9948 51.8544 77.7042 51.8544 77.7042L51.8501 77.6954ZM96.1352 103.357C121.567 89.698 109.761 76.5234 101.584 78.1669C99.5437 78.6384 98.6299 79.1098 98.6299 79.1098C98.6299 79.1098 99.3099 77.6998 100.899 77.2284C117.024 71.3416 129.74 94.8842 95.6719 104.062C95.6719 104.062 95.8972 103.829 96.1267 103.357H96.1352ZM54.3576 140.555C78.8801 142.203 116.352 139.612 117.258 127.601C117.258 127.601 115.443 132.315 97.0489 135.84C76.1559 139.841 50.2691 139.365 35.0541 136.783C35.0541 136.783 38.2331 139.608 54.3576 140.555Z" fill="#F3F3F3"/>
<path d="M80.7329 0.00448608C80.7329 0.00448608 94.8132 14.8359 67.3369 37.202C45.3092 55.3294 62.3432 65.6885 67.3369 77.462C54.3914 65.4549 45.0839 54.8579 51.4419 44.9747C60.7494 30.3724 86.4109 23.3532 80.7329 0.00448608ZM73.5079 67.5743C80.0954 75.3426 71.6932 82.4058 71.6932 82.4058C71.6932 82.4058 88.4977 73.4611 80.7754 62.3926C73.7374 51.8 68.2804 46.6182 97.8052 28.9624C97.8052 28.9624 51.2549 40.9694 73.5079 67.5743Z" fill="#F3F3F3"/>
</g>
<defs>
<clipPath id="clip0_151_177">
<rect width="136" height="141" fill="white"/>
</clipPath>
</defs>
</svg>
