<svg width="56" height="55" viewBox="0 0 56 55" fill="none" xmlns="http://www.w3.org/2000/svg">
<path d="M37.4297 18.7189C41.0588 18.7189 44.5394 20.1361 47.1056 22.6588C49.6718 25.1815 51.1134 28.6031 51.1134 32.1707V47.8645H41.9909V32.1707C41.9909 30.9815 41.5104 29.841 40.655 29.0001C39.7996 28.1592 38.6394 27.6868 37.4297 27.6868C36.22 27.6868 35.0598 28.1592 34.2044 29.0001C33.349 29.841 32.8684 30.9815 32.8684 32.1707V47.8645H23.746V32.1707C23.746 28.6031 25.1876 25.1815 27.7538 22.6588C30.32 20.1361 33.8005 18.7189 37.4297 18.7189Z" stroke="white" stroke-width="3" stroke-linecap="round" stroke-linejoin="round"/>
<path d="M14.6235 20.9609H5.50098V47.8645H14.6235V20.9609Z" stroke="white" stroke-width="3" stroke-linecap="round" stroke-linejoin="round"/>
<path d="M10.0622 14.235C12.5813 14.235 14.6235 12.2274 14.6235 9.75103C14.6235 7.27462 12.5813 5.26709 10.0622 5.26709C7.54312 5.26709 5.50098 7.27462 5.50098 9.75103C5.50098 12.2274 7.54312 14.235 10.0622 14.235Z" stroke="white" stroke-width="3" stroke-linecap="round" stroke-linejoin="round"/>
</svg>
