<svg width="20" height="20" viewBox="0 0 20 20" fill="none" xmlns="http://www.w3.org/2000/svg">
<path d="M13.133 6.62517C14.4392 6.62517 15.6918 7.14868 16.6154 8.08053C17.539 9.01238 18.0579 10.2762 18.0579 11.5941V17.3912H14.7746V11.5941C14.7746 11.1548 14.6017 10.7335 14.2938 10.4229C13.9859 10.1123 13.5684 9.93778 13.133 9.93778C12.6976 9.93778 12.2801 10.1123 11.9722 10.4229C11.6643 10.7335 11.4914 11.1548 11.4914 11.5941V17.3912H8.20811V11.5941C8.20811 10.2762 8.72698 9.01238 9.65058 8.08053C10.5742 7.14868 11.8268 6.62517 13.133 6.62517Z" stroke="#22242A" stroke-linecap="round" stroke-linejoin="round"/>
<path d="M4.92486 7.45332H1.6416V17.3912H4.92486V7.45332Z" stroke="#22242A" stroke-linecap="round" stroke-linejoin="round"/>
<path d="M3.28323 4.96886C4.18988 4.96886 4.92486 4.22731 4.92486 3.31256C4.92486 2.3978 4.18988 1.65625 3.28323 1.65625C2.37658 1.65625 1.6416 2.3978 1.6416 3.31256C1.6416 4.22731 2.37658 4.96886 3.28323 4.96886Z" stroke="#22242A" stroke-linecap="round" stroke-linejoin="round"/>
</svg>
