<svg width="51" height="48" viewBox="0 0 51 48" fill="none" xmlns="http://www.w3.org/2000/svg">
<path d="M34.4316 15.9999C37.9803 15.9999 41.3836 17.4222 43.8929 19.9539C46.4022 22.4857 47.8119 25.9194 47.8119 29.4998V45.2498H38.8917V29.4998C38.8917 28.3064 38.4218 27.1618 37.5854 26.3179C36.749 25.474 35.6145 24.9999 34.4316 24.9999C33.2487 24.9999 32.1143 25.474 31.2779 26.3179C30.4414 27.1618 29.9715 28.3064 29.9715 29.4998V45.2498H21.0513V29.4998C21.0513 25.9194 22.461 22.4857 24.9703 19.9539C27.4796 17.4222 30.883 15.9999 34.4316 15.9999Z" stroke="#22242A" stroke-width="5" stroke-linecap="round" stroke-linejoin="round"/>
<path d="M12.1311 18.2499H3.21094V45.2498H12.1311V18.2499Z" stroke="#22242A" stroke-width="5" stroke-linecap="round" stroke-linejoin="round"/>
<path d="M7.67104 11.4999C10.1343 11.4999 12.1311 9.48522 12.1311 6.99995C12.1311 4.51469 10.1343 2.49998 7.67104 2.49998C5.20779 2.49998 3.21094 4.51469 3.21094 6.99995C3.21094 9.48522 5.20779 11.4999 7.67104 11.4999Z" stroke="#22242A" stroke-width="5" stroke-linecap="round" stroke-linejoin="round"/>
</svg>
