<svg width="116" height="117" viewBox="0 0 116 117" fill="none" xmlns="http://www.w3.org/2000/svg">
<g clip-path="url(#clip0_151_206)">
<path d="M82.0148 41.414C83.279 44.1907 84.6901 46.8981 85.9442 49.6799C88.3578 55.0335 90.1909 60.686 90.9524 66.5163C91.7138 72.3466 91.3826 78.3672 89.5771 83.9574C87.5354 90.2678 83.6595 95.8819 78.9108 100.477C73.293 105.912 66.0817 110.103 58.3028 110.412C53.2341 110.614 48.1879 109.152 43.6992 106.769C39.927 104.767 36.4833 102.098 33.7358 98.8109C30.9882 95.5239 28.9482 91.6099 28.0035 87.4171C26.8402 82.2542 27.3667 76.7732 29.1272 71.7853C30.3864 68.2183 32.2529 64.8973 33.5816 61.3561C35.0338 57.4867 35.8446 53.355 37.7685 49.701C39.5119 46.3878 42.1275 43.5578 43.5168 40.0785C44.3465 38.0005 44.7065 35.7686 45.2423 33.5942C45.7781 31.4199 46.5283 29.2298 47.9875 27.5407C49.7464 25.5054 52.3919 24.4021 55.0505 24.0924C57.7091 23.7826 60.4003 24.2008 63.0096 24.8012C65.0869 25.279 67.139 25.8723 69.1465 26.5926C70.86 27.2074 72.558 27.9233 74.0397 28.987C76.0588 30.4361 77.5964 32.4765 78.8215 34.6493C80.0465 36.8221 80.9842 39.1433 82.0186 41.4144L82.0148 41.414Z" fill="#F3F3F3"/>
<path d="M59.693 110.462C61.8286 110.587 63.9603 110.796 66.0765 111.119C67.9373 111.404 69.7847 111.771 71.6135 112.22C74.4779 112.92 77.3322 113.813 80.2785 113.898C81.0539 113.92 81.8317 113.885 82.5927 113.715C83.3538 113.545 84.0845 113.235 84.6914 112.748C85.5961 112.02 86.1669 110.924 86.3832 109.776C86.5995 108.629 86.464 107.436 86.1308 106.318C85.4649 104.084 84.0341 102.177 82.8548 100.171C82.1773 99.0229 81.5735 97.8292 80.8396 96.7169C80.1057 95.6047 79.2282 94.5629 78.1138 93.8384C76.5731 92.8366 74.6627 92.51 72.8389 92.6933C71.0151 92.8766 69.2667 93.5412 67.639 94.3914C65.3574 95.5828 63.2098 97.219 61.9661 99.4866C61.5331 100.276 61.2186 101.124 60.8509 101.946C60.4832 102.768 60.0526 103.578 59.4298 104.225C58.7347 104.946 57.8331 105.432 57.1144 106.129C56.7553 106.482 56.4407 106.883 56.2602 107.35C56.0796 107.817 56.0303 108.351 56.1981 108.825C56.3134 109.15 56.5242 109.435 56.7844 109.659C57.0445 109.883 57.3521 110.047 57.6747 110.16C58.3193 110.389 59.0143 110.423 59.6965 110.463L59.693 110.462Z" fill="#F3F3F3"/>
<path d="M53.345 110.323C51.565 110.364 49.8038 110.685 48.0642 111.049C46.3977 111.396 44.7389 111.783 43.0926 112.219C40.3148 112.954 37.5335 113.835 34.6621 113.897C33.9065 113.912 33.1454 113.871 32.4088 113.699C31.6723 113.527 30.9594 113.222 30.3684 112.746C29.4656 112.02 28.8917 110.925 28.6793 109.781C28.4669 108.636 28.5966 107.445 28.9259 106.329C29.5848 104.096 30.9978 102.185 32.1549 100.17C32.8123 99.0244 33.3924 97.8334 34.1033 96.7208C34.8143 95.6082 35.6705 94.5641 36.767 93.8368C38.2611 92.846 40.1245 92.5103 41.904 92.687C43.6836 92.8636 45.3889 93.5251 46.9584 94.3898C49.174 95.6105 51.1973 97.2902 52.4783 99.4811C53.3772 101.02 53.8955 102.781 54.9463 104.219C55.512 104.994 56.2276 105.663 56.6936 106.5C56.9289 106.918 57.1013 107.379 57.1412 107.859C57.1812 108.338 57.083 108.837 56.8151 109.235C56.6384 109.499 56.393 109.712 56.1189 109.869C55.8448 110.026 55.5423 110.129 55.2336 110.194C54.6123 110.324 53.9794 110.304 53.3484 110.319L53.345 110.323ZM43.3993 35.5653C43.1493 32.5302 43.2052 29.4781 43.0965 26.4344C42.9885 23.5077 42.7214 20.5825 42.8188 17.6555C42.9182 14.679 43.4129 11.6634 44.7269 8.98856C46.0409 6.31369 48.1749 4.05082 50.7784 2.63545C53.2246 1.30389 56.0459 0.734838 58.8291 0.765386C62.6033 0.806899 66.3868 1.95674 69.4426 4.18985C71.3588 5.58877 72.9702 7.39225 74.2415 9.40408C75.326 11.1214 76.1685 12.9969 76.6974 14.9653C77.7819 18.9992 77.5244 23.2476 77.7357 27.4178C77.9356 31.3701 78.5627 35.3131 78.3492 39.2647C78.3026 40.1263 78.2109 41.0012 77.8316 41.7712C77.4619 42.5212 76.8345 43.1243 76.1134 43.5402C75.3923 43.9561 74.5808 44.1927 73.7604 44.3204C72.1191 44.5757 70.4405 44.4073 68.7872 44.562C66.3876 44.7864 64.0986 45.684 61.7172 46.0557C58.8827 46.4982 55.9873 46.1849 53.1174 46.069C51.9681 46.0228 50.8149 46.0083 49.6741 45.8638C48.5333 45.7193 47.3948 45.4408 46.3798 44.8949C45.7586 44.5589 45.1789 44.1214 44.7121 43.5829C44.2454 43.0444 43.889 42.408 43.7115 41.7121C43.4448 40.673 43.5853 39.5792 43.5892 38.5057C43.5931 37.5243 43.4797 36.5464 43.3951 35.5685L43.3993 35.5653Z" fill="#F3F3F3"/>
<path d="M47.9149 34.3959C47.5088 34.909 47.244 35.5266 47.084 36.1638C46.924 36.801 46.8658 37.4593 46.8405 38.1157C46.7908 39.4288 46.8701 40.7671 46.526 42.0344C46.1572 43.3894 45.3317 44.5628 44.5232 45.7071C43.1235 47.6888 41.7081 49.7214 41.0182 52.0524C40.6 53.4643 40.4606 54.9595 40.6112 56.425C39.0445 58.7459 37.6874 61.2108 36.5641 63.78C34.8611 67.6736 33.6923 71.8191 33.2811 76.0538C32.7779 81.2399 33.4357 86.5739 35.466 91.3656C36.9338 94.83 39.1229 98.0015 41.945 100.47C43.3797 101.725 44.9736 102.796 46.6821 103.641C52.5891 106.569 59.889 106.574 65.6978 103.453C68.7334 101.821 71.2961 99.4356 73.7664 97.0216C75.2543 95.5678 76.7345 94.0796 77.8694 92.3314C80.0543 88.9664 80.8154 84.8762 81.2883 80.8823C82.1154 73.8982 82.1418 66.521 79.1061 60.189C78.0578 58.0048 76.6709 56.0031 74.9977 54.2593C74.5531 51.2124 73.6751 48.2293 72.3992 45.431C71.479 43.4122 70.3537 41.4904 69.4987 39.4429C69.1477 38.6021 68.8386 37.7413 68.4531 36.9181C68.0675 36.0948 67.5833 35.3026 66.9294 34.672C66.2604 34.0258 65.4267 33.5684 64.5469 33.2755C63.667 32.9825 62.7413 32.8498 61.8172 32.8028C59.967 32.7088 58.1129 32.9528 56.2624 32.8787C54.7888 32.82 53.3199 32.5592 51.8475 32.6469C51.1113 32.6908 50.3759 32.8231 49.6925 33.1031C49.0091 33.3832 48.3793 33.8147 47.9196 34.3955L47.9149 34.3959Z" fill="#505155"/>
<g opacity="0.3" filter="url(#filter0_f_151_206)">
<path d="M45.1645 35.8499C46.4489 36.6507 47.6017 37.6334 48.5697 38.7545C49.4679 39.7949 50.2316 40.9745 51.4042 41.7451C52.2325 42.2891 53.2273 42.5957 54.2364 42.6888C55.4215 42.7981 56.6205 42.6213 57.7629 42.3093C58.8217 42.0199 59.8452 41.613 60.7845 41.0755C62.5699 40.0525 64.0617 38.5529 66.0264 37.8805C66.4562 37.7337 66.9039 37.6287 67.3182 37.4476C67.7325 37.2665 68.122 36.9952 68.32 36.6114C68.5142 36.2427 68.5025 35.8171 68.5647 35.4119C68.6307 34.9791 68.7798 34.5599 68.8613 34.1292C68.9428 33.6984 68.9526 33.2374 68.7526 32.8413C68.5864 32.5131 68.2847 32.254 67.9372 32.0892C67.5897 31.9243 67.1994 31.8497 66.8096 31.8316C66.0307 31.7956 65.2611 31.9813 64.4845 32.0473C63.4556 32.1346 62.4196 32.0113 61.3871 32.0401C60.1027 32.0762 58.8369 32.3468 57.5532 32.4027C56.0886 32.4669 54.6278 32.2519 53.1624 32.2043C52.5287 32.1833 51.8908 32.1934 51.266 32.2955C50.6413 32.3976 50.0282 32.5921 49.4993 32.9182C48.9868 33.2345 48.5686 33.6638 48.0988 34.0328C47.8638 34.2175 47.6142 34.3882 47.34 34.518C47.0659 34.6479 46.7654 34.7363 46.4586 34.75C46.3006 34.7572 46.141 34.7446 45.9849 34.767C45.854 34.7874 45.7287 34.8317 45.6163 34.8974C45.5039 34.9631 45.4066 35.0488 45.33 35.1496C45.2535 35.2503 45.1992 35.3642 45.1702 35.4846C45.1412 35.605 45.1382 35.7295 45.1614 35.851L45.1645 35.8499Z" fill="black"/>
</g>
<path d="M48.5083 18.1619C47.8172 18.1999 47.1551 18.5222 46.6492 18.9988C46.1432 19.4754 45.7872 20.1001 45.5674 20.7627C45.1286 22.088 45.2277 23.5245 45.3267 24.9141C45.4171 26.1759 45.5092 27.4616 45.9778 28.6354C46.212 29.222 46.5408 29.7711 46.9796 30.227C47.4184 30.6829 47.9705 31.0267 48.5786 31.1802C49.1494 31.3243 49.7582 31.2946 50.3193 31.1168C50.8804 30.939 51.3925 30.6155 51.8126 30.2011C52.4261 29.5961 52.8389 28.8046 53.0757 27.9727C53.3126 27.1409 53.3802 26.2683 53.3677 25.4036C53.3522 24.3211 53.2124 23.2339 52.8762 22.2063C52.5399 21.1786 52.0041 20.2078 51.2558 19.4312C50.8936 19.0552 50.48 18.7243 50.0133 18.4924C49.5466 18.2606 49.0259 18.1301 48.5068 18.1583L48.5083 18.1619Z" fill="url(#paint0_radial_151_206)"/>
<path d="M60.7467 18.1619C59.6673 18.906 58.7626 19.9536 58.3199 21.197C57.7623 22.7644 57.9759 24.5181 58.514 26.0925C59.0654 27.7048 59.9872 29.2412 61.3796 30.2093C62.0758 30.6934 62.8815 31.0251 63.721 31.1258C64.5605 31.2264 65.4333 31.0886 66.1827 30.695C67.0964 30.2148 67.7934 29.374 68.2259 28.4313C68.6585 27.4887 68.8433 26.4457 68.9008 25.4079C68.9784 24.0861 68.8464 22.7424 68.4154 21.4915C67.9475 20.1326 67.0952 18.8793 65.902 18.0972C65.304 17.7064 64.6238 17.4377 63.9179 17.3394C63.2119 17.2411 62.4792 17.3147 61.8149 17.5752C61.4363 17.724 61.0822 17.9304 60.7471 18.1626L60.7467 18.1619Z" fill="url(#paint1_radial_151_206)"/>
<g opacity="0.3" filter="url(#filter1_f_151_206)">
<path d="M48.2785 29.4378L46.2843 31.2726C45.9333 31.629 45.5815 32.0105 45.4242 32.4867C45.2845 32.9097 45.3109 33.3691 45.2417 33.8104C45.2184 33.9616 45.1835 34.112 45.1827 34.2647C45.1815 34.3413 45.1917 34.4176 45.213 34.4911C45.2351 34.5643 45.2713 34.6333 45.3237 34.6893C45.4099 34.7821 45.5326 34.8326 45.656 34.8577C45.7795 34.8827 45.9065 34.8859 46.0319 34.8996C46.5973 34.9611 47.1183 35.2376 47.5866 35.5634L48.965 36.5758C50.0251 37.2549 51.292 37.5568 52.5474 37.605C53.8027 37.6532 55.055 37.4601 56.2866 37.2114C57.2651 37.014 58.2412 36.7806 59.1696 36.4109C60.5919 35.8454 61.8737 34.9748 63.0983 34.0525C63.6548 33.6334 64.2034 33.2014 64.7031 32.715C64.8728 32.5498 65.0371 32.3782 65.2188 32.2271C65.4005 32.0759 65.6024 31.9443 65.8268 31.8715C66.1685 31.7606 66.5397 31.7923 66.8939 31.8519C67.1606 31.8969 67.4281 31.9576 67.6984 31.9459C67.8335 31.9404 67.969 31.9169 68.0944 31.866C68.2199 31.8151 68.336 31.7367 68.4218 31.631C68.5338 31.4896 68.5944 31.3138 68.5934 31.1328C68.5942 30.9535 68.539 30.7764 68.4497 30.6217C68.2692 30.3124 67.9574 30.1036 67.6324 29.9579C67.1874 29.7582 66.7059 29.6603 66.2322 29.5444C64.7781 29.1903 63.3647 28.6671 62.0247 27.9958C61.3584 27.6622 60.7108 27.2925 60.0553 26.9384C59.3813 26.5742 58.6944 26.2241 57.9625 26.0004C56.3266 25.5003 54.5378 25.6644 52.9236 26.2299C51.1297 26.8581 49.5079 27.9778 48.2774 29.4367L48.2785 29.4378Z" fill="black"/>
</g>
<path d="M51.7576 27.3653C52.4437 26.5871 52.9132 25.6382 53.5725 24.8365C53.9025 24.4359 54.2823 24.0708 54.7304 23.8116C55.1784 23.5523 55.698 23.4043 56.2125 23.4489C56.7848 23.4991 57.321 23.7865 57.74 24.1832C58.1589 24.58 58.47 25.084 58.7185 25.6029C58.9561 26.1034 59.1448 26.6368 59.4873 27.0716C59.8523 27.5353 60.3648 27.8517 60.8269 28.2163C61.0583 28.3984 61.28 28.5962 61.4629 28.8273C61.6458 29.0583 61.7891 29.327 61.8473 29.6172C61.9046 29.9142 61.8797 30.2213 61.7755 30.505C61.6737 30.787 61.5009 31.0424 61.2862 31.2507C60.8568 31.6678 60.2712 31.893 59.681 31.9772C58.5006 32.1456 57.3067 31.7908 56.115 31.8244C54.9086 31.8577 53.7301 32.2881 52.5241 32.2435C51.9211 32.2212 51.3095 32.0727 50.8141 31.7254C50.5642 31.5527 50.3531 31.3291 50.1944 31.069C50.0383 30.8085 49.9432 30.5089 49.9331 30.205C49.9233 29.9152 49.9905 29.6254 50.1055 29.3591C50.2204 29.0928 50.3823 28.8492 50.5644 28.6244C50.9294 28.1748 51.3748 27.7996 51.7572 27.3657L51.7576 27.3653Z" fill="url(#paint2_radial_151_206)"/>
<path d="M63.236 21.4496C62.8303 21.479 62.4346 21.6188 62.0906 21.8413C61.7466 22.0637 61.4526 22.3563 61.222 22.695C60.7611 23.3718 60.558 24.2016 60.5258 25.0213C60.5013 25.637 60.5685 26.2609 60.7712 26.8424C60.9739 27.424 61.3148 27.9625 61.7858 28.3553C62.2673 28.7575 62.8792 28.9992 63.504 29.0289C64.1287 29.0587 64.762 28.8774 65.2746 28.5171C65.6834 28.23 66.0131 27.8348 66.248 27.3919C66.4829 26.949 66.6246 26.4586 66.6887 25.9605C66.8029 25.0805 66.6739 24.1617 66.2705 23.3729C65.8671 22.5842 65.1833 21.9345 64.3574 21.6278C64.0002 21.4947 63.6158 21.4257 63.236 21.4532V21.4496Z" fill="#22242A"/>
<g filter="url(#filter2_f_151_206)">
<path d="M64.2044 24.1343C63.8682 24.2682 63.3358 24.184 63.1887 24.5169C63.1013 24.7143 63.2248 25.039 63.4228 25.12C63.8235 25.2845 64.4448 24.9869 64.6071 24.5815C64.677 24.4053 64.571 24.1272 64.3974 24.0528C64.3333 24.0254 64.2693 24.1077 64.2048 24.1335L64.2044 24.1343Z" fill="#141413"/>
</g>
<g filter="url(#filter3_f_151_206)">
<path d="M65.7455 25.0155C66.1959 24.5612 65.4248 23.3549 64.8233 22.8615C64.3876 22.5039 63.1187 22.1291 63.1731 22.5188C63.2274 22.9085 63.7943 23.4063 64.1807 23.7865C64.6513 24.2545 65.5319 25.2317 65.7455 25.0155Z" fill="url(#paint3_linear_151_206)"/>
</g>
<mask id="mask0_151_206" style="mask-type:luminance" maskUnits="userSpaceOnUse" x="57" y="17" width="13" height="14">
<path d="M60.7464 18.1618C59.7575 18.9948 58.7242 19.9634 58.3196 21.197C57.811 22.7479 57.6856 24.6892 58.5138 26.0925C60.0359 28.6702 63.3223 31.5166 66.1825 30.6942C68.0754 30.1498 68.5537 27.3653 68.9005 25.4071C69.1296 24.112 69.1319 22.5901 68.4151 21.4907C67.0126 19.3395 64.3664 17.6159 61.8142 17.5744C61.4088 17.5677 61.0571 17.8994 60.7464 18.1618Z" fill="white"/>
</mask>
<g mask="url(#mask0_151_206)">
<path d="M56.6694 22.1271C57.5984 21.3498 58.67 20.7643 59.823 20.404C62.1862 19.6677 64.8708 19.9587 66.959 21.2949C67.6801 21.7563 68.3227 22.3296 68.9936 22.863C69.6646 23.3964 70.3759 23.8969 71.182 24.1828C71.6169 24.3371 72.0821 24.4268 72.541 24.3787C72.9557 24.3348 73.3564 24.1781 73.6997 23.94C74.0429 23.7019 74.3307 23.3847 74.5462 23.0248C74.9779 22.3053 75.1169 21.4328 75.0424 20.5955C74.8937 18.9204 73.9567 17.4416 73.1716 15.9585C72.9258 15.494 72.6917 15.0213 72.395 14.5878C71.4853 13.2578 70.037 12.3805 68.518 11.8667C66.999 11.3529 65.3938 11.1672 63.8042 10.9651C63.0951 10.8751 62.378 10.7811 61.6686 10.8672C60.8532 10.9663 60.0859 11.298 59.2903 11.5036C58.9125 11.6016 58.5277 11.6701 58.1534 11.7794C57.7791 11.8886 57.4106 12.0417 57.1062 12.2869C56.6616 12.6457 56.382 13.1838 56.2609 13.745C56.1397 14.3062 56.1677 14.8901 56.2562 15.4572C56.4341 16.5914 56.8542 17.6989 56.8146 18.8464C56.7874 19.6344 56.542 20.4083 56.5719 21.1962C56.5808 21.4312 56.6135 21.6572 56.669 21.8816" fill="url(#paint4_linear_151_206)"/>
</g>
<g filter="url(#filter4_f_151_206)">
<path d="M64.4956 14.9359C64.3104 15.1709 64.143 15.4262 64.0103 15.7074C64.8435 15.8884 65.6411 16.2346 66.3516 16.7112C67.7281 17.6331 68.7734 18.9811 69.5065 20.4807C69.6773 20.2896 69.8334 20.0844 69.9678 19.8564C69.2308 18.2946 68.1645 16.8819 66.7403 15.9283C66.0561 15.4701 65.2939 15.1239 64.496 14.9375L64.4956 14.9359Z" fill="url(#paint5_linear_151_206)"/>
</g>
<g filter="url(#filter5_f_151_206)">
<path d="M48.4298 15.7016C48.3359 15.6996 48.2446 15.7082 48.1503 15.7125L47.9678 15.7235C48.5164 15.7736 49.062 15.9224 49.5574 16.1465C50.233 16.4519 50.8287 16.8878 51.3533 17.384C52.3255 18.3024 53.0481 19.4362 53.5374 20.6385C53.4178 19.73 53.1472 18.8483 52.7367 18.0306C52.5449 17.8074 52.3461 17.5881 52.1302 17.3844C51.606 16.8886 51.0096 16.4531 50.3344 16.1469C49.7442 15.8794 49.0864 15.7129 48.4294 15.7012L48.4298 15.7016Z" fill="url(#paint6_linear_151_206)"/>
</g>
<path d="M46.8417 23.9384C46.6973 24.8181 46.6919 25.7408 46.9916 26.5792C47.1858 27.133 47.5158 27.6355 47.9126 28.0675C48.1728 28.3502 48.4671 28.6071 48.8119 28.7736C49.1567 28.94 49.5559 29.0109 49.9263 28.9173C50.268 28.8311 50.5678 28.6079 50.7883 28.331C51.0088 28.0541 51.1564 27.7228 51.2612 27.3833C51.5707 26.3807 51.5214 25.2833 51.2139 24.28C50.9898 23.5488 50.619 22.8434 50.0385 22.3504C49.7617 22.1154 49.4374 21.9313 49.0853 21.8463C48.7331 21.7613 48.3514 21.7817 48.0221 21.9325C47.6564 22.1001 47.3729 22.4193 47.1873 22.7784C47.0017 23.1376 46.9066 23.5382 46.841 23.9377L46.8417 23.9384Z" fill="#22242A"/>
<g filter="url(#filter6_f_151_206)">
<path d="M48.6856 23.3021C48.7796 23.5504 49.0949 23.6404 49.2681 23.8406C49.4362 24.0352 49.6125 24.2361 49.7049 24.477C49.8816 24.9375 49.5302 25.6206 49.899 25.9456C50.0147 26.0474 50.2465 26.0498 50.3603 25.9456C50.8049 25.5375 50.7059 24.7143 50.5304 24.1343C50.3712 23.6079 49.9763 23.1098 49.4898 22.8595C49.2646 22.744 48.9268 22.648 48.7342 22.8125C48.6099 22.9183 48.6278 23.1493 48.6856 23.3021Z" fill="url(#paint7_linear_151_206)"/>
</g>
<path d="M45.2161 34.873C45.2394 34.9885 45.2833 35.1001 45.3431 35.2019C45.4464 35.3762 45.597 35.5176 45.7597 35.6367C45.9224 35.7557 46.0987 35.856 46.2691 35.9637C47.1754 36.5382 47.9135 37.3461 48.5697 38.1987C49.45 39.3431 50.2285 40.6132 51.4042 41.4454C52.2344 42.0328 53.2276 42.3677 54.2364 42.4699C55.4207 42.5901 56.6205 42.3971 57.7629 42.0579C58.8213 41.7434 59.8452 41.302 60.7845 40.7185C62.5706 39.6078 64.0617 37.9798 66.0264 37.2498C66.4562 37.0904 66.9039 36.9764 67.3179 36.7798C67.7318 36.5832 68.1216 36.2887 68.3196 35.872C68.5138 35.4718 68.5021 35.0096 68.5643 34.5698C68.6303 34.0999 68.7794 33.6448 68.8609 33.1772C68.9425 32.7096 68.9522 32.2091 68.7522 31.779C68.586 31.4227 68.2843 31.1415 67.9368 30.9625C67.5893 30.7835 67.199 30.7024 66.8092 30.6829C66.0303 30.6437 65.2607 30.8454 64.4841 30.9171C63.4552 31.0118 62.4192 30.8787 61.3867 30.9092C60.1023 30.9484 58.8365 31.2402 57.5528 31.3028C56.0882 31.3745 54.627 31.1462 53.162 31.0874C52.5276 31.0616 51.8884 31.0678 51.2625 31.1755C50.6366 31.2832 50.0219 31.4982 49.4997 31.8621C48.991 32.2169 48.5849 32.7002 48.1174 33.109C47.8836 33.3135 47.632 33.5007 47.354 33.6366C47.076 33.7725 46.7689 33.8575 46.4594 33.8508C46.3041 33.8469 46.1371 33.8206 45.9857 33.8692C45.8909 33.8994 45.8071 33.9581 45.7356 34.0282C45.6642 34.0983 45.6056 34.1798 45.55 34.2632C45.4209 34.4566 45.3083 34.6607 45.2134 34.8734L45.2161 34.873Z" fill="#22242A"/>
<path d="M48.2788 29.8295C47.5294 30.3386 46.8553 30.9585 46.2845 31.6643C45.9584 32.0677 45.6617 32.5063 45.4975 33.0005C45.3682 33.389 45.3243 33.8002 45.2428 34.2017C45.2117 34.3521 45.1768 34.5032 45.1768 34.656C45.1771 34.7327 45.1869 34.8099 45.2102 34.8831C45.2334 34.9564 45.2715 35.0249 45.3243 35.0801C45.4117 35.1718 45.534 35.2211 45.6575 35.2469C45.7809 35.2728 45.9075 35.2763 46.0325 35.2908C46.5975 35.3554 47.1174 35.6323 47.5857 35.9574L48.9657 36.967C50.0273 37.6445 51.2935 37.9453 52.5484 37.9943C53.8034 38.0432 55.0556 37.8509 56.2876 37.6026C57.2661 37.4056 58.2423 37.1718 59.1707 36.8021C60.5926 36.2366 61.8747 35.366 63.0994 34.4437C63.6558 34.0247 64.2044 33.5927 64.7042 33.1063C64.8738 32.941 65.0381 32.7695 65.2198 32.6183C65.4015 32.4671 65.6034 32.3355 65.8279 32.2627C66.1696 32.1519 66.5408 32.1836 66.8949 32.2431C67.1616 32.2881 67.4292 32.3488 67.6994 32.3371C67.8345 32.3316 67.9701 32.3081 68.0955 32.2572C68.2209 32.2063 68.337 32.128 68.4228 32.0222C68.5348 31.8809 68.5954 31.705 68.5944 31.5241C68.5952 31.3447 68.5401 31.1677 68.4508 31.013C68.2702 30.7036 67.9584 30.4948 67.6334 30.3492C67.1884 30.1494 66.707 30.0515 66.2332 29.9356C64.7791 29.5815 63.3657 29.0583 62.0257 28.3871C61.3594 28.0534 60.7118 27.6837 60.0564 27.3296C59.3823 26.9654 58.6954 26.6153 57.9635 26.3917C56.3276 25.8916 54.5388 26.0557 52.9247 26.6212C51.1308 27.2494 49.5093 28.3706 48.2788 29.8295Z" fill="#22242A"/>
<g opacity="0.8" filter="url(#filter7_f_151_206)">
<path d="M52.2343 27.6034C51.8895 27.4899 51.3191 28.1036 51.5051 28.418C51.5564 28.5042 51.7129 28.6139 51.8181 28.5551C51.9773 28.467 52.107 28.1517 52.279 28.0284C52.3939 27.9461 52.3683 27.6477 52.234 27.6038L52.2343 27.6034Z" fill="#22242A"/>
</g>
<mask id="mask1_151_206" style="mask-type:luminance" maskUnits="userSpaceOnUse" x="45" y="17" width="9" height="15">
<path d="M48.5087 18.1619C47.0363 20.0378 45.2013 22.7401 45.3275 24.9176C45.4537 27.0951 46.8263 30.375 48.5794 31.1837C50.3325 31.9925 50.8136 31.1888 51.8138 30.2047C52.814 29.2205 53.3126 27.3269 53.3693 25.4071C53.426 23.4873 52.1908 20.7388 51.257 19.4347C50.3232 18.1305 49.9815 16.2859 48.5087 18.1619Z" fill="white"/>
</mask>
<g mask="url(#mask1_151_206)">
<path d="M47.0176 20.9679C48.0601 20.3413 49.3298 20.1964 50.5382 20.3115C51.7465 20.4267 52.9164 20.7846 54.0871 21.1065C54.946 21.3423 55.8158 21.5608 56.6207 21.9439C57.4256 22.3269 58.1739 22.8901 58.6173 23.6682L58.827 24.045C58.9023 24.1672 58.9912 24.2839 59.105 24.37C59.2187 24.4562 59.3601 24.5126 59.5026 24.5048C59.574 24.5008 59.6447 24.4813 59.706 24.4445C59.7674 24.4076 59.8198 24.3544 59.8528 24.2909C59.8909 24.2177 59.9025 24.1327 59.8982 24.0497C59.8918 23.9671 59.8766 23.8854 59.8528 23.8061C59.5597 22.7279 58.8685 21.8134 58.3424 20.8297L57.4501 19.0297C56.3559 17.0089 54.5597 15.4204 52.5188 14.39C50.478 13.3596 48.1983 12.8642 45.9191 12.7295C43.2787 12.5736 40.6306 12.89 38.0252 13.3522C36.8953 13.5527 35.7498 13.7888 34.7496 14.3555C34.2499 14.6387 33.7917 15.0045 33.4341 15.456C33.0765 15.9076 32.8221 16.4488 32.7398 17.0214C32.6606 17.5736 32.7437 18.1415 32.934 18.6647C33.1242 19.1879 33.4224 19.6665 33.7715 20.0989C34.4692 20.9636 35.3635 21.6396 36.1874 22.3821C37.0114 23.1246 37.7794 23.9455 38.6969 24.5608C39.1574 24.8682 39.6572 25.1228 40.1891 25.2724C40.7211 25.422 41.288 25.4643 41.8292 25.3523C42.3903 25.2363 42.9099 24.9587 43.3645 24.6074C43.8192 24.2561 44.2133 23.8319 44.5869 23.3941C45.3343 22.5184 46.0325 21.5589 47.0164 20.9675L47.0176 20.9679Z" fill="#22242A"/>
</g>
<path d="M83.7922 58.5348C86.1549 60.4518 87.6541 63.3464 88.1177 66.3687C88.4796 68.7263 88.2443 71.1447 87.7178 73.4698C87.1912 75.7949 86.3774 78.0425 85.5697 80.2843C85.2475 81.1784 84.9244 82.0807 84.7963 83.023C84.6681 83.9652 84.7497 84.9631 85.2001 85.7989C85.7165 86.7568 86.6806 87.4163 87.717 87.7269C88.7401 88.0336 89.8448 88.0269 90.8808 87.7669C91.9167 87.5068 92.8832 86.9981 93.7261 86.3374C95.8679 84.66 97.1601 82.049 97.6603 79.3616C98.1604 76.6742 97.9305 73.8983 97.4661 71.2038C96.832 67.5303 95.7646 63.939 94.4064 60.4699C93.4073 57.9184 92.2382 55.4099 90.6051 53.2168C89.0065 51.0706 86.9913 49.264 85.4253 47.0935C84.3369 45.5857 83.4652 43.9017 82.1614 42.5796C81.509 41.9185 80.748 41.3529 79.886 41.015C79.024 40.677 78.056 40.5779 77.166 40.8309C75.9934 41.1638 75.0304 42.0959 74.5245 43.2128C74.0186 44.3298 73.9254 45.6108 74.1238 46.8237C74.3801 48.3883 75.0891 49.8405 75.8889 51.2061C76.7925 52.748 77.8389 54.2323 79.2034 55.3786C80.6272 56.575 82.3493 57.3642 83.7929 58.5352L83.7922 58.5348Z" fill="#F3F3F3"/>
<g opacity="0.2" filter="url(#filter8_f_151_206)">
<path d="M99.6942 98.7487C99.5095 99.3608 99.2341 99.9429 98.8768 100.476C98.0874 101.656 96.9414 102.544 95.7959 103.363C93.8421 104.759 91.8074 106.041 89.9892 107.631C88.7707 108.695 87.6607 109.887 86.6307 111.142C85.7504 112.215 84.9226 113.343 83.9194 114.298C82.9066 115.261 81.7144 116.039 80.4297 116.464C78.8675 116.979 77.2168 116.954 75.712 116.565C74.6574 116.293 73.6291 115.819 72.9759 114.961C72.32 114.1 72.1075 112.943 72.0318 111.807C71.8974 109.798 72.1354 107.746 72.3519 105.708C72.5322 104.013 72.698 102.318 72.7666 100.627C72.8862 97.5522 72.6881 94.5038 72.2754 91.5128C72.2064 91.0116 72.131 90.5071 72.1729 89.9909C72.2148 89.4748 72.3862 88.9382 72.7455 88.5399C73.0772 88.1718 73.5401 87.9541 74.0015 87.8467C74.4628 87.7394 74.9305 87.7293 75.3942 87.7214C76.4867 87.692 77.5856 87.6274 78.6618 87.7238C79.3408 87.7849 80.0067 87.9098 80.6845 87.9756C81.8161 88.0852 82.9892 88.0277 84.1243 87.692C85.346 87.331 86.5111 86.6534 87.7528 86.4674C88.2619 86.391 88.7735 86.3996 89.2679 86.4697C89.7731 86.541 90.2759 86.682 90.6643 86.993C90.9593 87.2295 91.1754 87.5542 91.3445 87.9004C91.5957 88.4162 91.7512 88.9852 91.8389 89.5688C91.9175 90.0857 91.945 90.6183 92.0773 91.1185C92.2947 91.9409 92.7871 92.6404 93.38 93.2098C93.9729 93.7792 94.6659 94.2288 95.3577 94.6722C96.0475 95.1135 96.7405 95.5522 97.4769 95.916C97.8226 96.0868 98.1779 96.2411 98.508 96.4381C98.8382 96.635 99.146 96.8767 99.3653 97.1959C99.6627 97.6286 99.7823 98.1957 99.693 98.7526" fill="#4F5054"/>
</g>
<mask id="mask2_151_206" style="mask-type:luminance" maskUnits="userSpaceOnUse" x="73" y="82" width="35" height="36">
<path d="M107.441 100.215C107.794 100.84 106.831 101.542 106.347 102.071C105.283 103.235 103.843 103.99 102.505 104.82C100.208 106.243 97.6046 107.132 95.3525 108.625C93.8448 109.625 92.5071 110.866 91.1357 112.049C89.9623 113.061 89.0071 114.35 87.7063 115.189C86.4056 116.028 84.9712 116.816 83.439 117.01C81.5818 117.245 79.6059 116.91 77.8865 116.163C76.6848 115.64 75.4947 114.839 74.7946 113.723C74.0906 112.601 73.9947 111.162 73.9275 109.836C73.8083 107.463 74.4568 105.113 74.7732 102.758C75.0373 100.799 75.4927 98.8642 75.6508 96.8935C75.9381 93.3132 75.3479 89.6843 75.775 86.1185C75.9128 84.9682 75.7051 83.5102 76.5562 82.7332C77.3476 82.0106 78.6646 82.2945 79.7324 82.3169C81.0313 82.3443 82.3076 82.6889 83.5726 82.9893C84.3709 83.1785 85.125 83.5415 85.9303 83.6982C87.266 83.9578 88.6351 84.1156 89.9945 84.071C91.4642 84.0224 92.8822 83.3676 94.3527 83.3798C94.9553 83.3849 95.5657 83.4902 96.1333 83.6931C96.7092 83.8987 97.2935 84.1654 97.7343 84.5919C98.0701 84.9169 98.2895 85.3583 98.4642 85.7942C98.7252 86.4451 98.8114 87.1563 98.9174 87.8503C99.0113 88.4667 98.858 89.1309 99.0781 89.7145C99.7887 91.5943 101.244 93.1323 102.66 94.5484C103.337 95.3062 104.225 95.9325 105.055 96.4392C105.936 96.9773 106.751 97.3987 107.176 98.3254C107.432 98.9069 106.965 99.7979 107.441 100.215L107.441 100.215Z" fill="white"/>
</mask>
<g mask="url(#mask2_151_206)">
<path d="M107.441 100.215C107.181 100.889 106.809 101.518 106.347 102.071C105.329 103.291 103.914 104.095 102.505 104.82C100.101 106.055 97.6118 107.139 95.3527 108.625C93.8392 109.621 92.4421 110.79 91.1359 112.049C90.0188 113.126 88.9592 114.276 87.7065 115.189C86.4423 116.11 84.9808 116.777 83.4392 117.01C81.5638 117.294 79.6263 116.927 77.8867 116.163C76.6683 115.627 75.4964 114.861 74.7948 113.723C74.0904 112.58 73.9297 111.182 73.9278 109.836C73.9246 107.456 74.3618 105.098 74.7734 102.758C75.1151 100.811 75.4413 98.8596 75.651 96.8936C76.0327 93.3179 76.0299 89.7059 75.7752 86.1185C75.7364 85.5177 75.6828 84.9111 75.7721 84.3154C75.8614 83.7197 76.1041 83.126 76.5565 82.7332C76.9746 82.3701 77.5349 82.21 78.0863 82.1794C78.6377 82.1489 79.1867 82.237 79.7327 82.3173C81.0191 82.5068 82.3156 82.656 83.5728 82.9897C84.3661 83.2 85.1388 83.4832 85.9305 83.6986C87.2519 84.0589 88.6353 84.2312 89.9947 84.0714C91.4586 83.8991 92.8797 83.3441 94.3529 83.3802C94.9574 83.3951 95.5566 83.5102 96.1336 83.6935C96.7218 83.8807 97.3023 84.1486 97.7345 84.5923C98.063 84.9291 98.2921 85.354 98.4645 85.7946C98.7207 86.4502 98.8586 87.1485 98.9176 87.8507C98.97 88.4726 98.9615 89.1016 99.0783 89.7149C99.2705 90.7233 99.7955 91.6429 100.448 92.4309C101.101 93.2188 101.885 93.8877 102.66 94.5488C103.436 95.2068 104.217 95.8628 105.054 96.4396C105.447 96.7107 105.853 96.9644 106.226 97.2621C106.599 97.5597 106.942 97.9071 107.175 98.3254C107.492 98.8932 107.588 99.5817 107.441 100.215L107.441 100.215Z" fill="#4F5054"/>
</g>
<mask id="mask3_151_206" style="mask-type:luminance" maskUnits="userSpaceOnUse" x="73" y="82" width="35" height="36">
<path d="M107.441 100.215C107.794 100.84 106.831 101.542 106.347 102.071C105.283 103.235 103.843 103.99 102.505 104.82C100.208 106.243 97.6046 107.132 95.3525 108.625C93.8448 109.625 92.5071 110.866 91.1357 112.049C89.9623 113.061 89.0071 114.35 87.7063 115.189C86.4056 116.028 84.9712 116.816 83.439 117.01C81.5818 117.245 79.6059 116.91 77.8865 116.163C76.6848 115.64 75.4947 114.839 74.7946 113.723C74.0906 112.601 73.9947 111.162 73.9275 109.836C73.8083 107.463 74.4568 105.113 74.7732 102.758C75.0373 100.799 75.4927 98.8642 75.6508 96.8935C75.9381 93.3132 75.3479 89.6843 75.775 86.1185C75.9128 84.9682 75.7051 83.5102 76.5562 82.7332C77.3476 82.0106 78.6646 82.2945 79.7324 82.3169C81.0313 82.3443 82.3076 82.6889 83.5726 82.9893C84.3709 83.1785 85.125 83.5415 85.9303 83.6982C87.266 83.9578 88.6351 84.1156 89.9945 84.071C91.4642 84.0224 92.8822 83.3676 94.3527 83.3798C94.9553 83.3849 95.5657 83.4902 96.1333 83.6931C96.7092 83.8987 97.2935 84.1654 97.7343 84.5919C98.0701 84.9169 98.2895 85.3583 98.4642 85.7942C98.7252 86.4451 98.8114 87.1563 98.9174 87.8503C99.0113 88.4667 98.858 89.1309 99.0781 89.7145C99.7887 91.5943 101.244 93.1323 102.66 94.5484C103.337 95.3062 104.225 95.9325 105.055 96.4392C105.936 96.9773 106.751 97.3987 107.176 98.3254C107.432 98.9069 106.965 99.7979 107.441 100.215L107.441 100.215Z" fill="white"/>
</mask>
<g mask="url(#mask3_151_206)">
<g filter="url(#filter9_f_151_206)">
<path d="M106.231 98.9806C105.991 99.5879 105.653 100.151 105.233 100.649C104.3 101.751 103.008 102.472 101.723 103.12C99.5283 104.228 97.2568 105.203 95.1923 106.541C93.8123 107.436 92.5364 108.486 91.3412 109.619C90.32 110.588 89.3512 111.623 88.2093 112.442C87.0522 113.273 85.7172 113.871 84.312 114.079C82.5997 114.334 80.833 114.004 79.2418 113.317C78.1324 112.839 77.0607 112.154 76.4181 111.124C75.779 110.099 75.6299 108.841 75.626 107.63C75.621 105.49 76.0213 103.373 76.3987 101.267C76.7121 99.5159 77.0103 97.7622 77.2001 95.9939C77.5457 92.7794 77.5294 89.5327 77.3135 86.3068C77.2774 85.7664 77.2359 85.2204 77.3182 84.6855C77.4005 84.1505 77.6203 83.6175 78.0272 83.2638C78.4089 82.9321 78.9214 82.7868 79.425 82.7602C79.9286 82.7336 80.4295 82.8158 80.9277 82.8894C82.1015 83.0637 83.2854 83.1949 84.434 83.4937C85.1581 83.6825 85.8644 83.9371 86.587 84.1313C87.7946 84.4564 89.0573 84.6111 90.2991 84.4665C91.6348 84.3111 92.9344 83.8125 94.279 83.845C94.8304 83.8587 95.3779 83.9625 95.9059 84.127C96.4425 84.2938 96.9737 84.5319 97.3678 84.9349C97.6653 85.2385 97.8707 85.6219 98.0341 86.0159C98.2772 86.6021 98.4352 87.2287 98.4481 87.8644C98.4616 88.5278 98.3176 89.194 98.4069 89.8511C98.4791 90.3849 98.7032 90.8882 98.9893 91.3433C99.2755 91.7984 99.6238 92.2088 99.969 92.62C100.636 93.415 101.305 94.2245 102.141 94.8347C103.093 95.5295 104.223 95.9352 105.206 96.5841C105.499 96.7776 105.783 96.9961 105.99 97.2813C106.162 97.5242 106.274 97.8054 106.316 98.1011C106.359 98.3968 106.33 98.6985 106.232 98.9806H106.231Z" fill="#4F5054"/>
</g>
</g>
<mask id="mask4_151_206" style="mask-type:luminance" maskUnits="userSpaceOnUse" x="73" y="82" width="35" height="36">
<path d="M107.44 100.215C107.793 100.84 106.831 101.542 106.347 102.071C105.282 103.235 103.842 103.99 102.503 104.82C100.207 106.244 97.6039 107.137 95.3512 108.626C93.8436 109.625 92.5064 110.867 91.1341 112.049C89.9607 113.061 89.0057 114.351 87.7044 115.189C86.4032 116.027 84.9693 116.815 83.4368 117.01C81.5795 117.246 79.6037 116.91 77.8893 116.163C76.6875 115.64 75.4928 114.839 74.7973 113.723C74.0935 112.601 73.9972 111.163 73.9306 109.837C73.8108 107.463 74.4596 105.114 74.7765 102.759C75.0401 100.799 75.4954 98.8642 75.6539 96.8941C75.941 93.3141 75.3512 89.6848 75.7781 86.1188C75.9113 84.9687 75.708 83.5107 76.5592 82.7337C77.3505 82.0113 78.6673 82.2994 79.7351 82.3177C81.0341 82.3457 82.3105 82.6903 83.5749 82.99C84.3737 83.1792 85.1273 83.5426 85.9328 83.6994C87.2642 83.9591 88.6373 84.1169 89.9971 84.072C91.467 84.0237 92.8845 83.3684 94.3553 83.3809C94.9579 83.3857 95.5682 83.4919 96.1362 83.6946C96.7119 83.9002 97.2964 84.1676 97.7371 84.5932C98.073 84.9185 98.2918 85.3596 98.4667 85.7998C98.7276 86.4513 98.8137 87.1617 98.9193 87.8557C99.0134 88.472 98.8599 89.1371 99.0804 89.7196C99.7905 91.5994 101.246 93.1374 102.662 94.5534C103.339 95.3111 104.227 95.9376 105.057 96.4443C105.938 96.9824 106.752 97.4038 107.178 98.3304C107.434 98.9119 106.967 99.8033 107.443 100.221L107.44 100.215Z" fill="white"/>
</mask>
<g mask="url(#mask4_151_206)">
<g filter="url(#filter10_f_151_206)">
<path d="M106.094 98.2965C105.827 98.907 105.48 99.4761 105.069 99.9809C104.113 101.153 102.823 101.96 101.463 102.477C99.2258 103.33 96.7831 103.444 94.5868 104.415C93.2483 105.007 92.0438 105.898 90.8233 106.741C89.8372 107.422 88.8298 108.078 87.7469 108.554C86.5242 109.092 85.2234 109.394 83.9186 109.606C83.0887 109.741 82.2486 109.84 81.4103 109.793C80.5719 109.746 79.7309 109.548 78.9916 109.117C78.4306 108.79 77.9264 108.319 77.6264 107.709C77.2936 107.03 77.2359 106.234 77.2439 105.465C77.2643 103.416 77.6992 101.389 77.6859 99.3395C77.6743 97.5557 77.3242 95.7947 77.2234 94.0143C77.0295 90.5901 77.7582 87.1066 77.1169 83.7476C77.0149 83.21 76.8764 82.6729 76.883 82.1236C76.8866 81.8486 76.9274 81.5735 77.0228 81.3191C77.1183 81.0648 77.2727 80.8341 77.4777 80.6734C77.6508 80.5383 77.855 80.4562 78.0649 80.419C78.2748 80.3819 78.4896 80.3891 78.7004 80.4224C79.1211 80.4885 79.5223 80.6551 79.932 80.7781C81.1045 81.1304 82.3431 81.1227 83.5343 81.3886C84.2821 81.5556 85.0064 81.8278 85.7462 82.0324C86.9889 82.3703 88.2848 82.5213 89.5594 82.3703C90.9307 82.2086 92.2697 81.7067 93.6481 81.7429C94.2131 81.7573 94.7741 81.8635 95.3191 82.0276C95.864 82.1917 96.4086 82.4233 96.8209 82.8432C97.1182 83.1463 97.3313 83.5334 97.5052 83.9339C97.7582 84.5189 97.9344 85.1549 97.9304 85.8007C97.9282 86.1371 97.8771 86.4706 97.8474 86.8045C97.8177 87.1385 97.8083 87.4821 97.8873 87.8069C97.9663 88.1317 98.1332 88.428 98.3236 88.6949C98.514 88.9618 98.7297 89.2065 98.9263 89.4681C99.4775 90.2002 99.8716 91.0535 100.301 91.8763C100.73 92.6992 101.211 93.5138 101.89 94.106C102.813 94.9129 104.01 95.2353 105.039 95.8724C105.341 96.0591 105.632 96.2778 105.844 96.577C106.014 96.8178 106.125 97.1009 106.169 97.4007C106.212 97.7004 106.186 98.0072 106.093 98.2932L106.094 98.2965Z" fill="#4F5054"/>
</g>
</g>
<g opacity="0.25" filter="url(#filter11_f_151_206)">
<path d="M42.4288 45.0443C42.3827 44.482 41.5868 44.3979 41.2317 44.6781C40.9319 44.9152 40.6508 45.7241 40.9094 46.0407C41.3298 46.5537 42.4916 45.8156 42.4288 45.045L42.4288 45.0443Z" fill="#7C7C7C"/>
</g>
<g opacity="0.35" filter="url(#filter12_f_151_206)">
<path d="M94.0361 86.0236C93.8175 85.5921 93.4199 85.2694 92.9761 85.0825C92.5323 84.8957 92.0454 84.8358 91.5651 84.8397C90.6041 84.8476 89.6489 85.0998 88.6917 85.016C87.8829 84.9455 87.1153 84.6388 86.3232 84.4453C85.5089 84.2495 84.645 84.1712 83.8362 84.3893C82.9719 84.6267 82.2093 85.2094 81.7317 85.9735C81.3108 86.6471 81.1104 87.4433 81.0483 88.2372C80.9861 89.031 81.0533 89.8296 81.1329 90.6222C81.1904 91.1956 81.2548 91.7697 81.3923 92.3298C81.5298 92.8898 81.7433 93.4353 82.078 93.9022C82.5595 94.5742 83.2751 95.0536 84.0466 95.3414C85.3212 95.8112 86.7233 95.7865 87.9808 95.2721C90.1785 94.3099 92.0384 92.5839 93.1722 90.455C93.578 89.6929 93.8932 88.8806 94.0971 88.0406C94.1779 87.7065 94.2415 87.3662 94.2446 87.0223C94.2477 86.6785 94.1876 86.3291 94.0326 86.0236H94.0361Z" fill="url(#paint8_radial_151_206)"/>
</g>
<g opacity="0.35" filter="url(#filter13_f_151_206)">
<path d="M94.0361 85.571C93.8175 85.259 93.4199 85.0257 92.9761 84.8906C92.5323 84.7556 92.0454 84.7122 91.5651 84.7151C90.6041 84.7207 89.6489 84.9031 88.6917 84.8425C87.8829 84.7915 87.1153 84.5698 86.3232 84.43C85.5089 84.2884 84.645 84.2318 83.8362 84.3895C82.9719 84.5611 82.2093 84.9823 81.7317 85.5347C81.3108 86.0217 81.1104 86.5973 81.0483 87.1712C80.9861 87.7451 81.0533 88.3223 81.1329 88.8954C81.1904 89.3099 81.2548 89.7249 81.3923 90.1298C81.5298 90.5347 81.7433 90.9291 82.078 91.2665C82.5595 91.7524 83.2751 92.0989 84.0466 92.307C85.3212 92.6466 86.7233 92.6288 87.9808 92.2569C90.1785 91.5613 92.0384 90.3135 93.1722 88.7745C93.578 88.2235 93.8932 87.6363 94.0971 87.029C94.1779 86.7875 94.2415 86.5415 94.2446 86.2929C94.2477 86.0443 94.1876 85.7918 94.0326 85.571H94.0361Z" fill="url(#paint9_radial_151_206)"/>
</g>
<path d="M95.8627 81.9851C95.7054 81.5527 95.4286 81.1697 95.09 80.8611C94.7514 80.5525 94.3522 80.3159 93.9317 80.1358C93.0911 79.7755 92.1766 79.6423 91.2789 79.4716L88.7442 78.9715C87.8628 78.8203 86.9511 78.724 86.0786 78.9225C85.3152 79.096 84.6093 79.4943 84.0315 80.0269C83.4537 80.5596 83.0026 81.2238 82.6783 81.9459C82.1068 83.2109 81.927 84.6345 82.0361 86.0201C82.1176 87.0513 82.3759 88.1138 83.0495 88.8947C83.5931 89.5253 84.3647 89.9189 85.1595 90.1558C86.5282 90.5643 88.02 90.5427 89.3763 90.0951C91.6319 89.3262 93.5826 87.8462 94.9405 85.8736C95.3831 85.2275 95.7605 84.5233 95.9318 83.7576C96.0622 83.1702 96.0669 82.5514 95.8627 81.9894V81.9851Z" fill="#22242A"/>
<path d="M42.3993 42.4679L35.8287 50.7651C34.4569 52.4804 33.0525 54.2091 32.1594 56.2206C31.3921 57.9489 31.0295 59.8264 30.5033 61.6447C29.9062 63.7094 29.0954 65.706 28.1853 67.6508C27.3446 69.4465 26.4186 71.2002 25.4905 72.952C24.8157 74.2264 24.1296 75.529 23.8955 76.9545C23.7106 78.0809 23.8178 79.2433 24.1028 80.3484C24.3878 81.4536 24.8405 82.5064 25.3601 83.5231C27.5605 87.8604 30.8621 91.5994 34.773 94.4595C36.5474 95.7574 38.4489 96.8798 40.4428 97.7986C41.523 98.2959 42.6614 98.74 43.8488 98.7608C44.4429 98.771 45.0424 98.6727 45.586 98.4318C46.1296 98.191 46.615 97.8037 46.9384 97.3012C47.3356 96.6832 47.4704 95.9156 47.3908 95.1836C47.3112 94.4516 47.0277 93.753 46.648 93.1236C45.7161 91.5872 44.2542 90.4762 42.8443 89.3745C39.8001 86.9957 36.855 84.4869 34.0372 81.8394C33.2412 81.0914 32.446 80.3206 31.8899 79.3784C31.3486 78.4604 31.0559 77.4147 30.8579 76.3655C30.3143 73.487 30.454 70.4585 31.4248 67.6974C31.8045 66.6173 32.3062 65.5858 32.7908 64.5487C33.6295 62.7511 34.4243 60.9198 35.5282 59.2745C36.9019 57.2263 38.7382 55.4913 39.8576 53.2911C40.8027 51.4348 41.1855 49.3466 41.5513 47.2921L42.3993 42.4679Z" fill="#F3F3F3"/>
<mask id="mask5_151_206" style="mask-type:luminance" maskUnits="userSpaceOnUse" x="10" y="80" width="38" height="37">
<path d="M26.51 80.2979C27.1312 80.0383 27.8294 79.9909 28.4902 80.1139C29.1511 80.2368 29.7755 80.5251 30.3319 80.9057C31.4439 81.6679 32.2687 82.777 33.0588 83.8744C34.8729 86.3941 36.6194 88.9664 38.2017 91.6405C39.4854 93.8094 40.665 96.0491 42.1483 98.0841C43.1167 99.4125 44.2089 100.645 45.182 101.97C46.155 103.294 47.0178 104.733 47.4496 106.324C48.0103 108.39 47.7932 110.668 46.8178 112.571C46.1317 113.911 45.0798 115.059 43.8 115.838C42.5202 116.616 41.016 117.018 39.5227 116.962C37.1487 116.872 34.9797 115.675 32.7727 114.788C28.2763 112.982 23.3916 112.415 18.7566 111.008C17.3316 110.576 15.9314 110.064 14.4971 109.666C13.8603 109.49 13.2119 109.334 12.61 109.059C12.0082 108.784 11.4451 108.374 11.1104 107.799C10.8518 107.355 10.7423 106.832 10.7493 106.317C10.7563 105.801 10.8759 105.293 11.0499 104.808C11.3978 103.839 11.9596 102.962 12.339 102.005C12.9583 100.442 13.0697 98.7201 12.9863 97.0392C12.9028 95.3583 12.6329 93.6927 12.5184 92.0145C12.4679 91.2649 12.4485 90.5055 12.5902 89.7681C12.7319 89.0306 13.0468 88.3092 13.5835 87.7884C14.0781 87.3078 14.7347 87.0227 15.4069 86.8809C16.079 86.7392 16.7717 86.7333 17.4586 86.7486C18.1455 86.7638 18.8331 86.801 19.5181 86.7446C20.203 86.6882 20.8899 86.5332 21.4867 86.1893C22.0536 85.8627 22.5172 85.3767 22.9016 84.8444C23.286 84.3122 23.5966 83.7298 23.915 83.1549C24.2334 82.58 24.5627 82.0066 24.9797 81.4999C25.3967 80.9931 25.9077 80.5509 26.5107 80.2987" fill="white"/>
</mask>
<g mask="url(#mask5_151_206)">
<path d="M26.51 80.2979C27.1312 80.0383 27.8294 79.9909 28.4902 80.1139C29.1511 80.2368 29.7755 80.5251 30.3319 80.9057C31.4439 81.6679 32.2687 82.777 33.0588 83.8744C34.8729 86.3941 36.6194 88.9664 38.2017 91.6405C39.4854 93.8094 40.665 96.0491 42.1483 98.0841C43.1167 99.4125 44.2089 100.645 45.182 101.97C46.155 103.294 47.0178 104.733 47.4496 106.324C48.0103 108.39 47.7932 110.668 46.8178 112.571C46.1317 113.911 45.0798 115.059 43.8 115.838C42.5202 116.616 41.016 117.018 39.5227 116.962C37.1487 116.872 34.9797 115.675 32.7727 114.788C28.2763 112.982 23.3916 112.415 18.7566 111.008C17.3316 110.576 15.9314 110.064 14.4971 109.666C13.8603 109.49 13.2119 109.334 12.61 109.059C12.0082 108.784 11.4451 108.374 11.1104 107.799C10.8518 107.355 10.7423 106.832 10.7493 106.317C10.7563 105.801 10.8759 105.293 11.0499 104.808C11.3978 103.839 11.9596 102.962 12.339 102.005C12.9583 100.442 13.0697 98.7201 12.9863 97.0392C12.9028 95.3583 12.6329 93.6927 12.5184 92.0145C12.4679 91.2649 12.4485 90.5055 12.5902 89.7681C12.7319 89.0306 13.0468 88.3092 13.5835 87.7884C14.0781 87.3078 14.7347 87.0227 15.4069 86.8809C16.079 86.7392 16.7717 86.7333 17.4586 86.7486C18.1455 86.7638 18.8331 86.801 19.5181 86.7446C20.203 86.6882 20.8899 86.5332 21.4867 86.1893C22.0536 85.8627 22.5172 85.3767 22.9016 84.8444C23.286 84.3122 23.5966 83.7298 23.915 83.1549C24.2334 82.58 24.5627 82.0066 24.9797 81.4999C25.3967 80.9931 25.9077 80.5509 26.5107 80.2987L26.51 80.2979Z" fill="#4F5054"/>
<g filter="url(#filter14_f_151_206)">
<path d="M27.4895 81.3788C28.0545 81.1493 28.6909 81.1243 29.2846 81.2598C29.8783 81.3953 30.43 81.6906 30.9107 82.0615C31.8729 82.8111 32.5415 83.8685 33.1838 84.9087C34.7253 87.428 36.2318 89.9741 37.6553 92.5718C38.7336 94.5272 39.7618 96.5246 41.0866 98.321C41.9657 99.5124 42.9686 100.604 43.866 101.782C44.7633 102.96 45.5628 104.242 45.96 105.672C46.471 107.515 46.264 109.549 45.3795 111.246C44.7391 112.47 43.7728 113.489 42.5893 114.188C41.4028 114.884 40.0437 115.222 38.6726 115.163C36.499 115.062 34.5141 113.967 32.4678 113.224C28.5449 111.789 24.2931 111.596 20.2693 110.475C18.8268 110.08 17.4204 109.553 15.971 109.185C15.3295 109.022 14.6768 108.888 14.0676 108.629C13.4583 108.369 12.8845 107.967 12.554 107.389C12.3082 106.96 12.21 106.454 12.2251 105.958C12.2403 105.462 12.3649 104.979 12.5358 104.512C12.886 103.585 13.4366 102.749 13.7899 101.819C14.3258 100.419 14.3918 98.8803 14.2924 97.3834C14.193 95.8866 13.9352 94.4031 13.8447 92.9055C13.8043 92.2358 13.7981 91.5582 13.9324 90.9019C14.0668 90.2455 14.3502 89.6095 14.8236 89.1348C15.3361 88.6218 16.0428 88.3421 16.7561 88.2325C17.4694 88.1228 18.1951 88.1706 18.913 88.2352C19.631 88.2998 20.3516 88.3813 21.0719 88.3378C21.7922 88.2943 22.5225 88.1173 23.1182 87.7085C23.6606 87.3384 24.0679 86.7983 24.3778 86.221C24.6876 85.6438 24.909 85.0246 25.145 84.4128C25.3811 83.8011 25.637 83.1902 26.0078 82.6505C26.3786 82.1108 26.876 81.6303 27.4856 81.3835" fill="#4F5054"/>
</g>
<g filter="url(#filter15_f_151_206)">
<path d="M26.9668 79.9554C27.5143 79.6815 28.1589 79.6254 28.7592 79.7488C29.3595 79.8723 29.9155 80.168 30.3884 80.555C31.3339 81.3242 31.9338 82.4299 32.4929 83.5106C33.7762 85.9933 34.9714 88.5297 36.5071 90.8674C37.6214 92.5596 38.9067 94.143 40.0335 95.8307C41.5618 98.1191 42.8043 100.637 43.3169 103.333C43.6617 105.147 43.6508 107.102 42.7841 108.74C42.2133 109.815 41.2892 110.701 40.197 111.25C39.1047 111.798 37.8505 112.025 36.6286 111.916C34.705 111.745 32.9577 110.791 31.1471 110.126C27.934 108.945 24.4616 108.663 21.1549 107.772C19.7602 107.397 18.3981 106.913 16.9808 106.618C16.3572 106.487 15.7212 106.392 15.126 106.165C14.5307 105.938 13.9665 105.562 13.6621 105.007C13.4486 104.616 13.376 104.159 13.4082 103.716C13.4404 103.273 13.5713 102.841 13.7441 102.431C14.0889 101.61 14.5983 100.857 14.8701 100.009C15.2634 98.7622 15.1019 97.4103 14.8064 96.1368C14.5109 94.8634 14.0854 93.6138 13.9545 92.3139C13.8963 91.735 13.8974 91.1447 14.0283 90.5774C14.1591 90.0101 14.4271 89.4651 14.8476 89.0582C15.3885 88.5344 16.146 88.2736 16.8989 88.2005C17.6518 88.1274 18.4101 88.2274 19.1587 88.3351C19.9074 88.4428 20.6606 88.5659 21.4166 88.5274C22.1726 88.489 22.9418 88.2928 23.534 87.8259C24.1195 87.3644 24.4876 86.6771 24.6988 85.966C24.9101 85.2548 24.9784 84.5114 25.065 83.7753C25.1516 83.0391 25.2591 82.2961 25.5426 81.6099C25.826 80.9238 26.3036 80.2915 26.9715 79.9573L26.9668 79.9554Z" fill="#4F5054"/>
</g>
</g>
</g>
<defs>
<filter id="filter0_f_151_206" x="44.7628" y="31.4438" width="24.5365" height="11.6607" filterUnits="userSpaceOnUse" color-interpolation-filters="sRGB">
<feFlood flood-opacity="0" result="BackgroundImageFix"/>
<feBlend mode="normal" in="SourceGraphic" in2="BackgroundImageFix" result="shape"/>
<feGaussianBlur stdDeviation="0.191623" result="effect1_foregroundBlur_151_206"/>
</filter>
<filter id="filter1_f_151_206" x="44.5995" y="25.119" width="24.5769" height="13.0765" filterUnits="userSpaceOnUse" color-interpolation-filters="sRGB">
<feFlood flood-opacity="0" result="BackgroundImageFix"/>
<feBlend mode="normal" in="SourceGraphic" in2="BackgroundImageFix" result="shape"/>
<feGaussianBlur stdDeviation="0.291564" result="effect1_foregroundBlur_151_206"/>
</filter>
<filter id="filter2_f_151_206" x="63.0535" y="23.9406" width="1.68212" height="1.33227" filterUnits="userSpaceOnUse" color-interpolation-filters="sRGB">
<feFlood flood-opacity="0" result="BackgroundImageFix"/>
<feBlend mode="normal" in="SourceGraphic" in2="BackgroundImageFix" result="shape"/>
<feGaussianBlur stdDeviation="0.0533428" result="effect1_foregroundBlur_151_206"/>
</filter>
<filter id="filter3_f_151_206" x="62.949" y="22.131" width="3.15372" height="3.13761" filterUnits="userSpaceOnUse" color-interpolation-filters="sRGB">
<feFlood flood-opacity="0" result="BackgroundImageFix"/>
<feBlend mode="normal" in="SourceGraphic" in2="BackgroundImageFix" result="shape"/>
<feGaussianBlur stdDeviation="0.111184" result="effect1_foregroundBlur_151_206"/>
</filter>
<filter id="filter4_f_151_206" x="63.9468" y="14.8725" width="6.08434" height="5.67162" filterUnits="userSpaceOnUse" color-interpolation-filters="sRGB">
<feFlood flood-opacity="0" result="BackgroundImageFix"/>
<feBlend mode="normal" in="SourceGraphic" in2="BackgroundImageFix" result="shape"/>
<feGaussianBlur stdDeviation="0.0317057" result="effect1_foregroundBlur_151_206"/>
</filter>
<filter id="filter5_f_151_206" x="47.9099" y="15.6433" width="5.68551" height="5.05306" filterUnits="userSpaceOnUse" color-interpolation-filters="sRGB">
<feFlood flood-opacity="0" result="BackgroundImageFix"/>
<feBlend mode="normal" in="SourceGraphic" in2="BackgroundImageFix" result="shape"/>
<feGaussianBlur stdDeviation="0.0289208" result="effect1_foregroundBlur_151_206"/>
</filter>
<filter id="filter6_f_151_206" x="48.4213" y="22.5048" width="2.47719" height="3.73787" filterUnits="userSpaceOnUse" color-interpolation-filters="sRGB">
<feFlood flood-opacity="0" result="BackgroundImageFix"/>
<feBlend mode="normal" in="SourceGraphic" in2="BackgroundImageFix" result="shape"/>
<feGaussianBlur stdDeviation="0.109899" result="effect1_foregroundBlur_151_206"/>
</filter>
<filter id="filter7_f_151_206" x="51.4216" y="27.5425" width="0.977561" height="1.07638" filterUnits="userSpaceOnUse" color-interpolation-filters="sRGB">
<feFlood flood-opacity="0" result="BackgroundImageFix"/>
<feBlend mode="normal" in="SourceGraphic" in2="BackgroundImageFix" result="shape"/>
<feGaussianBlur stdDeviation="0.0235651" result="effect1_foregroundBlur_151_206"/>
</filter>
<filter id="filter8_f_151_206" x="71.0336" y="85.4545" width="29.6477" height="32.3589" filterUnits="userSpaceOnUse" color-interpolation-filters="sRGB">
<feFlood flood-opacity="0" result="BackgroundImageFix"/>
<feBlend mode="normal" in="SourceGraphic" in2="BackgroundImageFix" result="shape"/>
<feGaussianBlur stdDeviation="0.479548" result="effect1_foregroundBlur_151_206"/>
</filter>
<filter id="filter9_f_151_206" x="73.5784" y="80.7075" width="34.8047" height="35.505" filterUnits="userSpaceOnUse" color-interpolation-filters="sRGB">
<feFlood flood-opacity="0" result="BackgroundImageFix"/>
<feBlend mode="normal" in="SourceGraphic" in2="BackgroundImageFix" result="shape"/>
<feGaussianBlur stdDeviation="1.0238" result="effect1_foregroundBlur_151_206"/>
</filter>
<filter id="filter10_f_151_206" x="75.2694" y="78.7807" width="32.5335" height="32.6374" filterUnits="userSpaceOnUse" color-interpolation-filters="sRGB">
<feFlood flood-opacity="0" result="BackgroundImageFix"/>
<feBlend mode="normal" in="SourceGraphic" in2="BackgroundImageFix" result="shape"/>
<feGaussianBlur stdDeviation="0.806721" result="effect1_foregroundBlur_151_206"/>
</filter>
<filter id="filter11_f_151_206" x="40.5335" y="44.2483" width="2.1718" height="2.2368" filterUnits="userSpaceOnUse" color-interpolation-filters="sRGB">
<feFlood flood-opacity="0" result="BackgroundImageFix"/>
<feBlend mode="normal" in="SourceGraphic" in2="BackgroundImageFix" result="shape"/>
<feGaussianBlur stdDeviation="0.137066" result="effect1_foregroundBlur_151_206"/>
</filter>
<filter id="filter12_f_151_206" x="79.8054" y="83.0396" width="15.6578" height="13.8556" filterUnits="userSpaceOnUse" color-interpolation-filters="sRGB">
<feFlood flood-opacity="0" result="BackgroundImageFix"/>
<feBlend mode="normal" in="SourceGraphic" in2="BackgroundImageFix" result="shape"/>
<feGaussianBlur stdDeviation="0.609264" result="effect1_foregroundBlur_151_206"/>
</filter>
<filter id="filter13_f_151_206" x="80.5514" y="83.8221" width="14.1657" height="9.19974" filterUnits="userSpaceOnUse" color-interpolation-filters="sRGB">
<feFlood flood-opacity="0" result="BackgroundImageFix"/>
<feBlend mode="normal" in="SourceGraphic" in2="BackgroundImageFix" result="shape"/>
<feGaussianBlur stdDeviation="0.236245" result="effect1_foregroundBlur_151_206"/>
</filter>
<filter id="filter14_f_151_206" x="10.5424" y="79.4958" width="37.3738" height="37.355" filterUnits="userSpaceOnUse" color-interpolation-filters="sRGB">
<feFlood flood-opacity="0" result="BackgroundImageFix"/>
<feBlend mode="normal" in="SourceGraphic" in2="BackgroundImageFix" result="shape"/>
<feGaussianBlur stdDeviation="0.840631" result="effect1_foregroundBlur_151_206"/>
</filter>
<filter id="filter15_f_151_206" x="12.3661" y="78.6519" width="32.1969" height="34.3257" filterUnits="userSpaceOnUse" color-interpolation-filters="sRGB">
<feFlood flood-opacity="0" result="BackgroundImageFix"/>
<feBlend mode="normal" in="SourceGraphic" in2="BackgroundImageFix" result="shape"/>
<feGaussianBlur stdDeviation="0.517366" result="effect1_foregroundBlur_151_206"/>
</filter>
<radialGradient id="paint0_radial_151_206" cx="0" cy="0" r="1" gradientUnits="userSpaceOnUse" gradientTransform="translate(1499.86 2206.44) rotate(-2.43079) scale(96.6386 238.569)">
<stop stop-color="#FEFEFC"/>
<stop offset="0.757" stop-color="#FEFEFC"/>
<stop offset="1" stop-color="#D4D4D4"/>
</radialGradient>
<radialGradient id="paint1_radial_151_206" cx="0" cy="0" r="1" gradientUnits="userSpaceOnUse" gradientTransform="translate(2692.3 2310.87) rotate(-1.8256) scale(173.016 252.175)">
<stop stop-color="#FEFEFC"/>
<stop offset="0.757" stop-color="#FEFEFC"/>
<stop offset="1" stop-color="#D4D4D4"/>
</radialGradient>
<radialGradient id="paint2_radial_151_206" cx="0" cy="0" r="1" gradientUnits="userSpaceOnUse" gradientTransform="translate(2872.14 -762.312) rotate(-36.2427) scale(158.983 105.743)">
<stop stop-color="#020204"/>
<stop offset="0.734" stop-color="#020204"/>
<stop offset="1" stop-color="#5C5C5C"/>
</radialGradient>
<linearGradient id="paint3_linear_151_206" x1="884.084" y1="379.885" x2="902.153" y2="401.414" gradientUnits="userSpaceOnUse">
<stop stop-color="#949494" stop-opacity="0.392"/>
<stop offset="0.5" stop-color="#949494"/>
<stop offset="1" stop-color="#949494" stop-opacity="0.392"/>
</linearGradient>
<linearGradient id="paint4_linear_151_206" x1="1703.62" y1="1637.68" x2="2029.26" y2="1902.88" gradientUnits="userSpaceOnUse">
<stop stop-color="#747474"/>
<stop offset="0.125" stop-color="#8C8C8C"/>
<stop offset="0.25" stop-color="#A4A4A4"/>
<stop offset="0.5" stop-color="#D4D4D4"/>
<stop offset="0.619" stop-color="#D4D4D4"/>
<stop offset="1" stop-color="#7C7C7C"/>
</linearGradient>
<linearGradient id="paint5_linear_151_206" x1="156.411" y1="600.253" x2="235.442" y2="680.417" gradientUnits="userSpaceOnUse">
<stop stop-color="#646464" stop-opacity="0"/>
<stop offset="0.306" stop-color="#646464" stop-opacity="0.583"/>
<stop offset="0.47" stop-color="#646464"/>
<stop offset="0.728" stop-color="#646464" stop-opacity="0.257"/>
<stop offset="1" stop-color="#646464" stop-opacity="0"/>
</linearGradient>
<linearGradient id="paint6_linear_151_206" x1="-95.5777" y1="542.348" x2="-29.597" y2="614.029" gradientUnits="userSpaceOnUse">
<stop stop-color="#646464" stop-opacity="0"/>
<stop offset="0.306" stop-color="#646464" stop-opacity="0.583"/>
<stop offset="0.47" stop-color="#646464"/>
<stop offset="0.728" stop-color="#646464" stop-opacity="0.257"/>
<stop offset="1" stop-color="#646464" stop-opacity="0"/>
</linearGradient>
<linearGradient id="paint7_linear_151_206" x1="382.899" y1="458.302" x2="405.367" y2="483.122" gradientUnits="userSpaceOnUse">
<stop stop-color="#757574" stop-opacity="0"/>
<stop offset="0.263" stop-color="#757574"/>
<stop offset="0.5" stop-color="#757574"/>
<stop offset="1" stop-color="#757574" stop-opacity="0"/>
</linearGradient>
<radialGradient id="paint8_radial_151_206" cx="0" cy="0" r="1" gradientUnits="userSpaceOnUse" gradientTransform="translate(4943.68 6493.88) rotate(15.1234) scale(301.815 273.309)">
<stop stop-color="#110800"/>
<stop offset="0.591" stop-color="#A65A00" stop-opacity="0.8"/>
<stop offset="1" stop-color="#FF921E" stop-opacity="0"/>
</radialGradient>
<radialGradient id="paint9_radial_151_206" cx="0" cy="0" r="1" gradientUnits="userSpaceOnUse" gradientTransform="translate(4943.68 4717.97) rotate(11.055) scale(296.87 200.873)">
<stop stop-color="#110800"/>
<stop offset="0.591" stop-color="#A65A00" stop-opacity="0.8"/>
<stop offset="1" stop-color="#FF921E" stop-opacity="0"/>
</radialGradient>
<clipPath id="clip0_151_206">
<rect width="116" height="117" fill="white"/>
</clipPath>
</defs>
</svg>
