<svg width="262" height="188" viewBox="0 0 262 188" fill="none" xmlns="http://www.w3.org/2000/svg">
<path d="M111.143 82.0647C111.32 82.0862 111.493 82.138 111.657 82.2113C111.814 82.2889 111.953 82.3924 112.079 82.5131C112.248 82.677 112.404 82.8494 112.552 83.0349L125.686 99.998C125.631 99.459 125.598 98.9286 125.572 98.4198C125.547 97.911 125.534 97.4281 125.534 96.9753V82H131.19V110.252H127.847C127.413 110.265 126.982 110.187 126.581 110.019C126.189 109.816 125.851 109.523 125.593 109.157L112.552 92.34C112.594 92.8272 112.624 93.3102 112.649 93.7845C112.675 94.2588 112.687 94.6986 112.687 95.1126V110.256H107.032V82H110.408C110.644 82.0043 110.881 82.0216 111.113 82.0561" fill="#F3F3F3"/>
<path d="M140.5 90.1409V102.896C140.45 103.719 140.682 104.538 141.163 105.202C141.657 105.767 142.378 106.069 143.117 106.017C143.746 106.022 144.362 105.884 144.932 105.612C145.531 105.323 146.084 104.944 146.574 104.487V90.1409H152.457V110.243H148.81C148.156 110.299 147.549 109.877 147.363 109.234L147.008 108.07C146.641 108.436 146.244 108.781 145.831 109.092C145.426 109.394 144.991 109.657 144.531 109.868C144.046 110.088 143.543 110.26 143.024 110.377C142.45 110.506 141.868 110.566 141.281 110.562C140.302 110.579 139.331 110.385 138.432 109.989C137.622 109.626 136.9 109.079 136.322 108.393C135.74 107.677 135.301 106.854 135.035 105.966C134.735 104.974 134.596 103.939 134.613 102.904V90.1409H140.5Z" fill="#F3F3F3"/>
<path d="M156.251 110.252V90.1408H159.898C160.223 90.1279 160.544 90.2141 160.818 90.3909C161.071 90.572 161.257 90.8394 161.337 91.1455L161.654 92.2321C161.974 91.8872 162.316 91.5638 162.679 91.2619C163.034 90.9687 163.422 90.7186 163.827 90.5074C164.722 90.0417 165.718 89.8045 166.723 89.8174C167.782 89.7743 168.824 90.1064 169.677 90.7575C170.479 91.4172 171.091 92.2839 171.449 93.267C171.762 92.6719 172.171 92.133 172.657 91.6759C173.117 91.249 173.636 90.8911 174.193 90.6152C174.75 90.3435 175.332 90.1408 175.936 90.0115C176.539 89.8864 177.156 89.8218 177.772 89.8174C178.793 89.8002 179.81 89.977 180.768 90.3349C181.604 90.6496 182.355 91.1628 182.963 91.8268C183.571 92.521 184.027 93.3446 184.301 94.2329C184.622 95.2807 184.774 96.3716 184.757 97.4668V110.243H178.848V97.4754C178.848 95.3928 177.974 94.3493 176.231 94.3536C175.488 94.332 174.771 94.6209 174.248 95.1599C173.686 95.7895 173.404 96.626 173.463 97.4754V110.252H167.6V97.4754C167.6 96.3242 167.381 95.5178 166.938 95.0478C166.406 94.5519 165.697 94.3019 164.979 94.3536C164.456 94.3536 163.941 94.4786 163.473 94.7201C162.983 94.9788 162.532 95.3108 162.135 95.7075V110.256L156.251 110.252Z" fill="#F3F3F3"/>
<path d="M194.586 100.809V110.252H188.171V81.9999H197.924C199.625 81.9611 201.318 82.1983 202.947 82.7028C204.217 83.0995 205.391 83.7592 206.399 84.6432C207.286 85.4409 207.973 86.4455 208.404 87.571C208.834 88.7352 209.05 89.9684 209.037 91.2145C209.05 92.5383 208.826 93.8534 208.37 95.0953C207.94 96.2509 207.243 97.2857 206.34 98.1136C205.336 99.0105 204.154 99.6788 202.879 100.08C201.276 100.584 199.604 100.83 197.924 100.8L194.586 100.809ZM194.586 95.8628H197.924C199.613 95.8628 200.799 95.4618 201.533 94.6425C202.267 93.8232 202.635 92.7021 202.635 91.2318C202.643 90.6324 202.546 90.0331 202.348 89.4682C202.17 88.9508 201.883 88.4851 201.503 88.1013C201.086 87.7003 200.583 87.3985 200.039 87.2174C199.359 86.9932 198.646 86.881 197.929 86.894H194.59L194.586 95.8628Z" fill="#F3F3F3"/>
<path d="M220.433 115.469C220.298 115.81 220.078 116.103 219.8 116.332C219.432 116.547 219.006 116.646 218.584 116.612H214.174L217.972 108.471L210.118 90.1236H215.317C216.022 90.0676 216.676 90.5031 216.913 91.1843L220.137 99.8513C220.437 100.632 220.682 101.429 220.88 102.244C221.007 101.813 221.142 101.425 221.302 101.028C221.462 100.632 221.602 100.218 221.724 99.8039L224.649 91.18C224.759 90.8696 224.97 90.6066 225.244 90.4341C225.527 90.24 225.856 90.1366 226.194 90.1322H230.942L220.433 115.469Z" fill="#F3F3F3"/>
<path d="M58.3445 72.8113L46.5946 66.7531L33.6968 73.3287L45.7674 79.5207L58.3445 72.8113Z" fill="#F3F3F3"/>
<path d="M63.7341 75.5881L76.0537 81.9439L63.274 88.5024L51.1865 82.3018L63.7341 75.5881Z" fill="#F3F3F3"/>
<path d="M80.1897 66.8435L92.8469 73.3286L81.5234 79.1325L69.1826 72.7724L80.1897 66.8435Z" fill="#F3F3F3"/>
<path d="M74.741 64.0494L63.3457 58.2111L52.0728 63.9589L63.8184 70.0085L74.741 64.0494Z" fill="#F3F3F3"/>
<path d="M65.8315 114.18V130.065L79.6368 123.028L79.6241 107.134L65.8315 114.18Z" fill="#F3F3F3"/>
<path d="M79.6157 101.589L79.603 85.8634L65.8315 92.853V108.587L79.6157 101.589Z" fill="#F3F3F3"/>
<path d="M96.1894 98.644V114.59L84.4142 120.592L84.4058 104.715L96.1894 98.644Z" fill="#F3F3F3"/>
<path d="M96.1894 93.0644V77.438L84.3931 83.4273L84.4015 99.1873L96.1894 93.0644Z" fill="#F3F3F3"/>
<path d="M60.961 92.8445L51.6759 88.0669V108.708C51.6759 108.708 40.3016 83.9878 39.2507 81.7672C39.0271 81.474 38.7358 81.2411 38.4066 81.0902C36.3555 79.995 30.3877 76.9033 30.3877 76.9033V113.382L38.6556 117.918V98.8424C38.6556 98.8424 49.8948 120.928 50.0088 121.174C50.1227 121.42 51.2496 123.739 52.4609 124.559C54.0647 125.645 60.9525 129.88 60.9525 129.88L60.961 92.8445Z" fill="#F3F3F3"/>
</svg>
