<svg width="66" height="72" viewBox="0 0 66 72" fill="none" xmlns="http://www.w3.org/2000/svg">
<path d="M27.9568 14.6002L16.2069 8.54199L3.30908 15.1177L15.3797 21.3096L27.9568 14.6002Z" fill="#F3F3F3"/>
<path d="M33.3464 17.377L45.666 23.7327L32.8863 30.2912L20.7988 24.0906L33.3464 17.377Z" fill="#F3F3F3"/>
<path d="M49.802 8.63257L62.4592 15.1177L51.1357 20.9216L38.7949 14.5615L49.802 8.63257Z" fill="#F3F3F3"/>
<path d="M44.3533 5.83835L32.958 0L21.6851 5.7478L33.4307 11.7974L44.3533 5.83835Z" fill="#F3F3F3"/>
<path d="M35.4438 55.9688V71.8539L49.2491 64.8169L49.2364 48.9231L35.4438 55.9688Z" fill="#F3F3F3"/>
<path d="M49.228 43.3779L49.2153 27.6523L35.4438 34.642V50.3762L49.228 43.3779Z" fill="#F3F3F3"/>
<path d="M65.8017 40.4329V56.3784L54.0265 62.3806L54.0181 46.5041L65.8017 40.4329Z" fill="#F3F3F3"/>
<path d="M65.8017 34.8532V19.2268L54.0054 25.2161L54.0138 40.9762L65.8017 34.8532Z" fill="#F3F3F3"/>
<path d="M30.5733 34.6333L21.2882 29.8557V50.4969C21.2882 50.4969 9.91395 25.7766 8.86304 23.556C8.63936 23.2628 8.34814 23.0299 8.01894 22.879C5.96778 21.7838 0 18.6921 0 18.6921V55.171L8.26795 59.7072V40.6312C8.26795 40.6312 19.5071 62.7169 19.6211 62.9627C19.735 63.2085 20.8619 65.5283 22.0732 66.3476C23.677 67.4342 30.5648 71.6685 30.5648 71.6685L30.5733 34.6333Z" fill="#F3F3F3"/>
</svg>
