<svg width="252" height="103" viewBox="0 0 252 103" fill="none" xmlns="http://www.w3.org/2000/svg">
<path d="M89.533 61.9505C86.3715 61.9505 83.1516 60.6288 81.1353 58.0384V72.0325H74.8032V37.4856H80.5289L80.7474 41.2858C82.7114 38.3657 86.1991 36.8232 89.5268 36.8232C95.9081 36.8232 100.609 42.225 100.609 49.3869C100.609 56.5488 95.9143 61.9536 89.533 61.9505ZM87.5721 41.5657C83.8627 41.5657 80.8644 44.4858 80.8644 49.39C80.8644 54.2942 83.8627 57.2205 87.5721 57.2205C91.2814 57.2205 94.2797 54.3004 94.2797 49.3962C94.2797 44.492 91.2814 41.5657 87.5721 41.5657Z" fill="#F3F3F3"/>
<path d="M124.475 61.2943L124.256 57.4941C122.292 60.4142 118.801 61.9567 115.474 61.9536C109.092 61.9536 104.392 56.5549 104.392 49.393C104.392 42.2312 109.083 36.8294 115.474 36.8325C118.801 36.8325 122.292 38.3874 124.256 41.2951L124.475 37.4949H130.212V61.2943H124.475ZM117.441 41.5688C113.731 41.5688 110.733 44.4889 110.73 49.393C110.727 54.2972 113.728 57.2204 117.437 57.2204C121.147 57.2204 124.148 54.3003 124.148 49.3962C124.148 44.492 121.15 41.5688 117.441 41.5688Z" fill="#F3F3F3"/>
<path d="M152.336 61.2975V48.1305C152.336 43.5031 150.757 41.9607 147.867 41.9607C144.865 41.9607 141.593 44.7128 141.593 48.0186V61.2975H135.264V37.495H141.048L141.322 41.9047C142.905 38.8726 146.448 36.8357 150.049 36.8357C156.32 36.8357 158.669 41.2454 158.669 47.1385V61.3006L152.336 61.2975Z" fill="#F3F3F3"/>
<path d="M181.858 61.3037L181.639 57.5004C179.675 60.4205 176.184 61.963 172.86 61.963C166.478 61.963 161.778 56.5613 161.778 49.3994C161.778 42.2375 166.469 36.8389 172.86 36.8389C176.021 36.8389 179.238 38.1636 181.257 40.751V28.2465H187.586V61.3037H181.858ZM174.824 41.5782C171.13 41.5782 168.116 44.4983 168.116 49.3994C168.116 54.3004 171.114 57.2206 174.824 57.2206C178.533 57.2206 181.531 54.3036 181.531 49.3994C181.531 44.4952 178.542 41.5782 174.824 41.5782Z" fill="#F3F3F3"/>
<path d="M211.357 61.3068L211.138 57.5066C209.174 60.4267 205.684 61.9661 202.356 61.9661C195.975 61.9661 191.274 56.5674 191.274 49.4024C191.274 42.2374 195.965 36.8419 202.356 36.8419C205.684 36.8419 209.174 38.3968 211.138 41.3076L211.357 37.5043H217.083V61.3037L211.357 61.3068ZM204.323 41.5813C200.629 41.5813 197.615 44.5014 197.612 49.4055C197.609 54.3097 200.614 57.2205 204.32 57.2205C208.026 57.2205 211.031 54.3004 211.031 49.3962C211.031 44.492 208.032 41.5813 204.323 41.5813Z" fill="#F3F3F3"/>
<path d="M231.098 62.0811C227.77 62.0532 224.511 61.1196 221.663 59.3787L222.7 54.9721C224.609 56.1289 227.5 57.6185 230.99 57.6185C233.499 57.6185 235.245 56.8473 235.245 54.8632C235.245 53.1559 233.444 52.5495 230.227 51.7783C224.446 50.5095 222.374 47.4246 222.374 44.0629C222.374 40.3155 225.265 36.7921 231.646 36.7921C235.519 36.7921 238.902 38.4994 239.65 38.941L238.612 43.1299C236.552 41.8768 234.202 41.1926 231.797 41.1458C229.236 41.1458 227.98 42.0259 227.98 43.4595C227.98 45.0549 229.617 45.7732 232.123 46.3797C238.341 47.7013 240.85 50.6214 240.85 53.8183C240.863 58.9402 237.153 62.0811 231.098 62.0811Z" fill="#F3F3F3"/>
<path d="M30.466 21.2773H23.0503V36.8326H30.466V21.2773Z" fill="#F3F3F3"/>
<path d="M30.466 53.2306H23.0503V68.7859H30.466V53.2306Z" fill="#F3F3F3"/>
<path d="M30.466 41.3729H23.0503V48.7121H30.466V41.3729Z" fill="#F3F3F3"/>
<path d="M18.5563 34.068H11.1406V85.7748H18.5563V34.068Z" fill="#F3F3F3"/>
<path d="M42.1329 66.0648H34.7173V81.6201H42.1329V66.0648Z" fill="#F3F3F3"/>
<path d="M42.1329 34.0867H34.7173V49.6419H42.1329V34.0867Z" fill="#F3F3F3"/>
<path d="M42.1329 54.1823H34.7173V61.5214H42.1329V54.1823Z" fill="#F3F3F3"/>
<path d="M53.7965 17.2252H46.3809V68.932H53.7965V17.2252Z" fill="#F3F3F3"/>
</svg>
