<svg width="50" height="50" viewBox="0 0 50 50" fill="none" xmlns="http://www.w3.org/2000/svg">
<path d="M46.6249 35.508V42.0079C46.6273 42.6113 46.5048 43.2086 46.2652 43.7615C46.0256 44.3144 45.6742 44.8107 45.2335 45.2186C44.7928 45.6265 44.2725 45.9371 43.7059 46.1304C43.1394 46.3237 42.539 46.3955 41.9434 46.3412C35.3353 45.6168 28.9878 43.3386 23.4109 39.6896C18.2222 36.3631 13.8232 31.9247 10.5261 26.6897C6.89689 21.0373 4.63833 14.6019 3.93345 7.90476C3.87978 7.30561 3.95036 6.70175 4.14068 6.13163C4.331 5.5615 4.63689 5.03761 5.03888 4.59329C5.44088 4.14898 5.93016 3.79399 6.47558 3.55092C7.02101 3.30785 7.61062 3.18202 8.20688 3.18146H14.6492C15.6914 3.17111 16.7018 3.54346 17.492 4.2291C18.2822 4.91475 18.7983 5.86691 18.9442 6.9081C19.2161 8.98824 19.7204 11.0307 20.4474 12.9964C20.7363 13.7719 20.7988 14.6147 20.6276 15.425C20.4563 16.2352 20.0584 16.979 19.481 17.568L16.7538 20.3197C19.8108 25.744 24.2622 30.2353 29.6385 33.3196L32.3657 30.568C32.9496 29.9854 33.6868 29.584 34.4898 29.4112C35.2929 29.2384 36.1283 29.3015 36.8969 29.593C38.8452 30.3265 40.8695 30.8353 42.9312 31.1096C43.9744 31.2581 44.9271 31.7883 45.6081 32.5992C46.2891 33.4102 46.651 34.4454 46.6249 35.508Z" stroke="#22242A" stroke-width="6" stroke-linecap="round" stroke-linejoin="round"/>
</svg>
