<svg width="52" height="52" viewBox="0 0 52 52" fill="none" xmlns="http://www.w3.org/2000/svg">
<path d="M47.4829 36.5385V42.9166C47.4853 43.5087 47.364 44.0947 47.1268 44.6372C46.8896 45.1797 46.5417 45.6667 46.1054 46.067C45.6691 46.4673 45.154 46.772 44.5931 46.9617C44.0322 47.1514 43.4379 47.2219 42.8482 47.1686C36.3061 46.4577 30.022 44.2222 24.5008 40.6417C19.364 37.3776 15.0089 33.0225 11.7448 27.8857C8.15178 22.3394 5.91579 16.0247 5.21794 9.45325C5.16481 8.86534 5.23468 8.27281 5.4231 7.71338C5.61152 7.15396 5.91436 6.63989 6.31233 6.20391C6.71031 5.76794 7.19471 5.41961 7.73468 5.1811C8.27466 4.94259 8.85838 4.81912 9.44869 4.81857H15.8267C16.8585 4.80841 17.8587 5.17378 18.641 5.84656C19.4233 6.51934 19.9343 7.45363 20.0787 8.47529C20.3479 10.5164 20.8472 12.5205 21.5669 14.4494C21.853 15.2103 21.9149 16.0373 21.7453 16.8324C21.5757 17.6274 21.1818 18.3572 20.6102 18.9352L17.9102 21.6353C20.9367 26.9578 25.3437 31.3648 30.6662 34.3913L33.3662 31.6913C33.9443 31.1197 34.6741 30.7257 35.4691 30.5562C36.2642 30.3866 37.0912 30.4485 37.8521 30.7346C39.781 31.4543 41.7851 31.9536 43.8262 32.2228C44.8589 32.3685 45.8021 32.8886 46.4763 33.6844C47.1505 34.4801 47.5088 35.4959 47.4829 36.5385Z" stroke="white" stroke-width="3" stroke-linecap="round" stroke-linejoin="round"/>
</svg>
