<svg width="17" height="17" viewBox="0 0 17 17" fill="none" xmlns="http://www.w3.org/2000/svg">
<path d="M16.184 0.816378C15.9254 0.557574 15.6184 0.352262 15.2805 0.212182C14.9426 0.0721013 14.5804 0 14.2146 0C13.8488 0 13.4866 0.0721013 13.1486 0.212182C12.8107 0.352262 12.5037 0.557574 12.2452 0.816378L1.77255 11.2895C1.4609 11.6012 1.23425 11.9879 1.11526 12.4128L0.0195516 16.326C-0.00576444 16.4167 -0.0065086 16.5125 0.0173957 16.6036C0.0412999 16.6947 0.0889931 16.7778 0.155588 16.8444C0.222183 16.911 0.305286 16.9587 0.396382 16.9826C0.487477 17.0065 0.58329 17.0058 0.674004 16.9804L4.58655 15.8848C5.0118 15.7666 5.39911 15.5402 5.7106 15.2275L14.3424 6.59654C14.56 6.83172 14.6781 7.14203 14.6719 7.46238C14.6657 7.78273 14.5357 8.08823 14.3091 8.3148L12.9046 9.71929C12.8524 9.76793 12.8106 9.82657 12.7815 9.89173C12.7525 9.95689 12.7369 10.0272 12.7356 10.0986C12.7344 10.1699 12.7475 10.2407 12.7742 10.3069C12.8009 10.373 12.8407 10.4331 12.8911 10.4835C12.9416 10.534 13.0017 10.5737 13.0678 10.6005C13.1339 10.6272 13.2048 10.6403 13.2761 10.639C13.3474 10.6378 13.4178 10.6222 13.483 10.5931C13.5481 10.5641 13.6068 10.5222 13.6554 10.4701L15.0599 9.06627C15.4857 8.64042 15.7277 8.06465 15.7339 7.46247C15.7402 6.86028 15.5101 6.27964 15.0932 5.84507L16.184 4.75434C16.4427 4.49584 16.6479 4.1889 16.7879 3.85105C16.9279 3.5132 17 3.15107 17 2.78536C17 2.41965 16.9279 2.05752 16.7879 1.71967C16.6479 1.38182 16.4427 1.07488 16.184 0.816378ZM12.9967 1.56714C13.3198 1.24414 13.758 1.06272 14.2148 1.06279C14.6717 1.06285 15.1098 1.2444 15.4328 1.56749C15.7558 1.89059 15.9373 2.32876 15.9372 2.78561C15.9371 3.24247 15.7556 3.68058 15.4325 4.00358L4.95982 14.4767C4.77749 14.6603 4.55045 14.7931 4.30112 14.862L1.29729 15.7027L2.13802 12.6997C2.20789 12.4507 2.34057 12.2239 2.52333 12.041L12.9967 1.56714Z" fill="#F3F3F3"/>
</svg>
