<svg width="122" height="123" viewBox="0 0 122 123" fill="none" xmlns="http://www.w3.org/2000/svg">
<path d="M31.4412 16.3506C31.4412 7.93788 33.6933 3.36134 46.1271 1.18206C54.5686 -0.300028 65.3921 -0.485289 75.4882 1.18206C83.4624 2.50049 90.174 8.45044 90.174 16.3506V44.1057C90.174 52.246 83.6578 58.9142 75.4882 58.9142H46.1271C36.1623 58.9142 27.7639 67.4251 27.7639 77.0469V90.3634H17.6684C9.12894 90.3634 4.15702 84.1954 2.06838 75.5648C-0.748936 63.9699 -0.629338 57.0616 2.06838 45.957C4.40731 36.2698 11.8809 31.1584 20.421 31.1584H60.8129V27.4532H31.4406V16.35L31.4412 16.3506Z" fill="#F3F3F3"/>
<path d="M90.1747 105.172C90.1747 113.585 82.886 117.846 75.4889 119.971C64.3602 123.175 55.4286 122.685 46.1277 119.971C38.3601 117.705 31.4419 113.073 31.4419 105.172V77.4174C31.4419 69.4295 38.0888 62.6089 46.1277 62.6089H75.4889C85.2687 62.6089 93.852 54.1425 93.852 44.1057V31.1597H104.861C113.412 31.1597 117.437 37.5234 119.547 45.9583C122.484 57.6729 122.615 66.4339 119.547 75.566C116.577 84.4363 113.401 90.3646 104.861 90.3646H60.8136V94.0698H90.1747V105.172Z" fill="#F3F3F3"/>
<path d="M38.7842 14.509C38.7842 11.4362 41.2427 8.95123 44.2894 8.95123C47.3243 8.95123 49.7945 11.4356 49.7945 14.509C49.7945 17.572 47.3249 20.0557 44.2894 20.0557C41.2439 20.0557 38.7842 17.5714 38.7842 14.509ZM71.8214 107.015C71.8214 103.952 74.291 101.468 77.3266 101.468C80.372 101.468 82.8318 103.952 82.8318 107.015C82.8318 110.087 80.3732 112.572 77.3266 112.572C74.2916 112.572 71.8214 110.088 71.8214 107.015Z" fill="#22242A"/>
</svg>
