<svg width="222" height="112" viewBox="0 0 222 112" fill="none" xmlns="http://www.w3.org/2000/svg">
<path d="M59.8663 42.4592L55.1398 47.2282C63.0173 55.1767 63.0173 68.1213 55.1398 76.0698C47.2623 84.0183 34.4332 84.0183 26.5557 76.0698C18.6782 68.1213 18.6782 55.1767 26.5557 47.2282L39.1597 34.5107L40.7352 32.6939V23.1558L21.6042 42.4592C19.0904 44.97 17.0949 47.9588 15.733 51.2526C14.3711 54.5464 13.6699 58.08 13.6699 61.649C13.6699 65.218 14.3711 68.7516 15.733 72.0454C17.0949 75.3393 19.0904 78.328 21.6042 80.8389C24.0926 83.3753 27.0547 85.3888 30.3191 86.7629C33.5835 88.1371 37.0856 88.8446 40.6227 88.8446C44.1598 88.8446 47.6618 88.1371 50.9263 86.7629C54.1907 85.3888 57.1528 83.3753 59.6412 80.8389C70.4446 70.1652 70.4446 52.9057 59.8663 42.4592Z" fill="#F3F3F3"/>
<path d="M50.4131 41.0966C52.402 41.0966 54.0143 39.4698 54.0143 37.463C54.0143 35.4563 52.402 33.8295 50.4131 33.8295C48.4243 33.8295 46.812 35.4563 46.812 37.463C46.812 39.4698 48.4243 41.0966 50.4131 41.0966Z" fill="#F3F3F3"/>
<mask id="path-3-inside-1_151_316" fill="white">
<path d="M88.8146 59.7857H85.1146V69.3878H82.3525V42.1307H89.105C96.2682 42.1307 99.6445 45.6401 99.6445 50.7174C99.6445 56.7057 95.4487 59.6998 88.7979 59.8024L88.8146 59.7857ZM88.9996 44.7123H85.0258V57.2059L88.9145 57.1033C94.0316 57.0006 96.7955 54.9342 96.7955 50.7006C96.7955 46.8814 94.1352 44.7123 89.0181 44.7123H88.9996ZM112.147 69.2833L110.51 73.6195C108.667 78.4728 106.81 79.9176 104.062 79.9176C102.527 79.9176 101.402 79.507 100.174 78.988L100.991 76.511C101.913 77.028 102.934 77.336 104.062 77.336C105.598 77.336 106.723 76.511 108.154 72.6694L109.486 69.16L101.813 49.4406H104.68L110.922 65.9606L117.064 49.4406H119.826L112.147 69.2833ZM129.028 44.815V69.4923H126.266V44.815H116.75V42.1307H138.543V44.7123H129.026L129.028 44.815ZM146.32 70.0056C140.794 70.0056 136.7 65.8766 136.7 59.4739C136.7 53.0713 140.896 48.8395 146.505 48.8395C152.031 48.8395 156.021 52.9686 156.021 59.3713C156.021 65.7739 151.826 70.0056 146.3 70.0056H146.32ZM146.422 51.339C142.226 51.339 139.466 54.7457 139.466 59.3918C139.466 64.2451 142.333 67.5491 146.525 67.5491C150.717 67.5491 153.481 64.1424 153.481 59.4963C153.481 54.643 150.614 51.339 146.422 51.339ZM162.898 69.4905H160.238V49.4611L162.898 48.9441V53.1777C164.23 50.5961 166.172 48.9441 168.731 48.9441C169.949 48.9542 171.145 49.2739 172.209 49.8737L171.495 52.4534C170.677 51.9363 169.552 51.6283 168.424 51.6283C166.378 51.6283 164.433 53.1777 162.796 56.7915V69.4905H162.898ZM182.748 70.0056C176.814 70.0056 173.027 65.6694 173.027 59.4739C173.027 53.1758 177.119 48.8395 182.748 48.8395C185.203 48.8395 187.251 49.4593 188.99 50.5942L188.274 53.0713C186.739 52.039 184.898 51.4193 182.748 51.4193C178.451 51.4193 175.792 54.6206 175.792 59.3713C175.792 64.2246 178.66 67.424 182.852 67.424C184.812 67.4149 186.729 66.8418 188.378 65.7721L188.89 68.2491C187.151 69.3841 185.002 70.0056 182.748 70.0056ZM205.566 69.4905V56.5843C205.566 53.075 204.134 51.5443 201.37 51.5443C199.119 51.5443 196.868 52.6793 195.228 54.4377V69.6136H192.568V40.083L195.228 39.5659V52.1622C197.275 50.0977 199.935 48.9609 202.085 48.9609C205.973 48.9609 208.326 51.4379 208.326 55.7742V69.5054L205.566 69.4905Z"/>
</mask>
<path d="M88.8146 59.7857H85.1146V69.3878H82.3525V42.1307H89.105C96.2682 42.1307 99.6445 45.6401 99.6445 50.7174C99.6445 56.7057 95.4487 59.6998 88.7979 59.8024L88.8146 59.7857ZM88.9996 44.7123H85.0258V57.2059L88.9145 57.1033C94.0316 57.0006 96.7955 54.9342 96.7955 50.7006C96.7955 46.8814 94.1352 44.7123 89.0181 44.7123H88.9996ZM112.147 69.2833L110.51 73.6195C108.667 78.4728 106.81 79.9176 104.062 79.9176C102.527 79.9176 101.402 79.507 100.174 78.988L100.991 76.511C101.913 77.028 102.934 77.336 104.062 77.336C105.598 77.336 106.723 76.511 108.154 72.6694L109.486 69.16L101.813 49.4406H104.68L110.922 65.9606L117.064 49.4406H119.826L112.147 69.2833ZM129.028 44.815V69.4923H126.266V44.815H116.75V42.1307H138.543V44.7123H129.026L129.028 44.815ZM146.32 70.0056C140.794 70.0056 136.7 65.8766 136.7 59.4739C136.7 53.0713 140.896 48.8395 146.505 48.8395C152.031 48.8395 156.021 52.9686 156.021 59.3713C156.021 65.7739 151.826 70.0056 146.3 70.0056H146.32ZM146.422 51.339C142.226 51.339 139.466 54.7457 139.466 59.3918C139.466 64.2451 142.333 67.5491 146.525 67.5491C150.717 67.5491 153.481 64.1424 153.481 59.4963C153.481 54.643 150.614 51.339 146.422 51.339ZM162.898 69.4905H160.238V49.4611L162.898 48.9441V53.1777C164.23 50.5961 166.172 48.9441 168.731 48.9441C169.949 48.9542 171.145 49.2739 172.209 49.8737L171.495 52.4534C170.677 51.9363 169.552 51.6283 168.424 51.6283C166.378 51.6283 164.433 53.1777 162.796 56.7915V69.4905H162.898ZM182.748 70.0056C176.814 70.0056 173.027 65.6694 173.027 59.4739C173.027 53.1758 177.119 48.8395 182.748 48.8395C185.203 48.8395 187.251 49.4593 188.99 50.5942L188.274 53.0713C186.739 52.039 184.898 51.4193 182.748 51.4193C178.451 51.4193 175.792 54.6206 175.792 59.3713C175.792 64.2246 178.66 67.424 182.852 67.424C184.812 67.4149 186.729 66.8418 188.378 65.7721L188.89 68.2491C187.151 69.3841 185.002 70.0056 182.748 70.0056ZM205.566 69.4905V56.5843C205.566 53.075 204.134 51.5443 201.37 51.5443C199.119 51.5443 196.868 52.6793 195.228 54.4377V69.6136H192.568V40.083L195.228 39.5659V52.1622C197.275 50.0977 199.935 48.9609 202.085 48.9609C205.973 48.9609 208.326 51.4379 208.326 55.7742V69.5054L205.566 69.4905Z" fill="#F3F3F3"/>
<path d="M88.8146 59.7857L196.776 166.783L453.46 -92.2144H88.8146V59.7857ZM85.1146 59.7857V-92.2144H-66.8854V59.7857H85.1146ZM85.1146 69.3878V221.388H237.115V69.3878H85.1146ZM82.3525 69.3878H-69.6475V221.388H82.3525V69.3878ZM82.3525 42.1307V-109.869H-69.6475V42.1307H82.3525ZM88.7979 59.8024L-19.1632 -47.1947L-281.532 217.537L91.1441 211.784L88.7979 59.8024ZM85.0258 44.7123V-107.288H-66.9742V44.7123H85.0258ZM85.0258 57.2059H-66.9742V213.272L89.0374 209.153L85.0258 57.2059ZM88.9145 57.1033L85.8655 -94.8662L85.3841 -94.8565L84.9029 -94.8438L88.9145 57.1033ZM112.147 69.2833L-29.6076 14.4225L-29.8335 15.0064L-30.0547 15.5921L112.147 69.2833ZM110.51 73.6195L252.613 127.57L252.662 127.44L252.711 127.311L110.51 73.6195ZM100.174 78.988L-44.1653 31.3404L-88.1079 164.456L41.0232 219.007L100.174 78.988ZM100.991 76.511L175.384 -56.04L14.4887 -146.34L-43.3476 28.8634L100.991 76.511ZM108.154 72.6694L-33.9535 18.7312L-34.1147 19.1559L-34.2733 19.5815L108.154 72.6694ZM109.486 69.16L251.594 123.098L272.325 68.4797L251.139 14.0363L109.486 69.16ZM101.813 49.4406V-102.559H-120.441L-39.8396 104.564L101.813 49.4406ZM104.68 49.4406L246.869 -4.28394L209.737 -102.559H104.68V49.4406ZM110.922 65.9606L-31.2668 119.685L112.07 499.045L253.394 118.93L110.922 65.9606ZM117.064 49.4406V-102.559H11.411L-25.4076 -3.52925L117.064 49.4406ZM119.826 49.4406L261.581 104.301L341.638 -102.559H119.826V49.4406ZM129.028 44.815H281.028V43.4464L281.003 42.078L129.028 44.815ZM129.028 69.4923V221.492H281.028V69.4923H129.028ZM126.266 69.4923H-25.734V221.492H126.266V69.4923ZM126.266 44.815H278.266V-107.185H126.266V44.815ZM116.75 44.815H-35.2504V196.815H116.75V44.815ZM116.75 42.1307V-109.869H-35.2504V42.1307H116.75ZM138.543 42.1307H290.543V-109.869H138.543V42.1307ZM138.543 44.7123V196.712H290.543V44.7123H138.543ZM129.026 44.7123V-107.288H-25.7359L-22.9492 47.4493L129.026 44.7123ZM160.238 69.4905H8.23754V221.49H160.238V69.4905ZM160.238 49.4611L131.237 -99.7467L8.23754 -75.84V49.4611H160.238ZM162.898 48.9441H314.898V-135.444L133.897 -100.264L162.898 48.9441ZM162.898 53.1777H10.8979L297.978 122.873L162.898 53.1777ZM168.731 48.9441L169.998 -103.051L169.365 -103.056H168.731V48.9441ZM172.209 49.8737L318.7 90.4243L350.412 -24.1379L246.87 -82.5261L172.209 49.8737ZM171.495 52.4534L90.2577 180.923L263.35 290.377L317.986 93.004L171.495 52.4534ZM162.796 56.7915L24.3423 -5.93451L10.7961 23.9658V56.7915H162.796ZM162.796 69.4905H10.7961V221.49H162.796V69.4905ZM188.99 50.5942L335.013 92.7995L366.238 -15.2342L272.064 -76.6957L188.99 50.5942ZM188.274 53.0713L103.471 179.216L276.429 295.49L334.297 95.2766L188.274 53.0713ZM182.852 67.424V219.424H183.205L183.559 219.422L182.852 67.424ZM188.378 65.7721L337.226 34.9786L292.178 -182.772L105.643 -61.7384L188.378 65.7721ZM188.89 68.2491L271.964 195.539L358.728 138.914L337.738 37.4557L188.89 68.2491ZM205.566 69.4905H53.5662V220.67L204.744 221.488L205.566 69.4905ZM195.228 54.4377L84.0427 -49.2047L43.2284 -5.4198V54.4377H195.228ZM195.228 69.6136V221.614H347.228V69.6136H195.228ZM192.568 69.6136H40.5682V221.614H192.568V69.6136ZM192.568 40.083L163.567 -109.125L40.5682 -85.218V40.083H192.568ZM195.228 39.5659H347.228V-144.822L166.228 -109.642L195.228 39.5659ZM195.228 52.1622H43.2284V421.462L303.19 159.159L195.228 52.1622ZM208.326 69.5054L207.504 221.503L360.326 222.33V69.5054H208.326ZM88.8146 -92.2144H85.1146V211.786H88.8146V-92.2144ZM-66.8854 59.7857V69.3878H237.115V59.7857H-66.8854ZM85.1146 -82.6122H82.3525V221.388H85.1146V-82.6122ZM234.353 69.3878V42.1307H-69.6475V69.3878H234.353ZM82.3525 194.131H89.105V-109.869H82.3525V194.131ZM89.105 194.131C69.7033 194.131 32.0752 189.429 -2.65658 159.239C-40.2258 126.582 -52.3555 83.4051 -52.3555 50.7174H251.644C251.644 12.9524 237.827 -34.5183 196.779 -70.1988C158.568 -103.413 115.67 -109.869 89.105 -109.869V194.131ZM-52.3555 50.7174C-52.3555 14.7578 -37.7128 -29.5269 1.54405 -61.0507C35.3554 -88.2016 70.2942 -91.93 86.4518 -92.1794L91.1441 211.784C113.952 211.432 154.315 206.155 191.886 175.985C234.904 141.441 251.644 92.6653 251.644 50.7174H-52.3555ZM196.759 166.8L196.776 166.783L-19.1465 -47.2115L-19.1632 -47.1947L196.759 166.8ZM88.9996 -107.288H85.0258V196.712H88.9996V-107.288ZM-66.9742 44.7123V57.2059H237.026V44.7123H-66.9742ZM89.0374 209.153L92.9261 209.05L84.9029 -94.8438L81.0142 -94.7411L89.0374 209.153ZM91.9635 209.073C110.615 208.698 151.132 204.851 189.408 174.398C234.418 138.588 248.795 88.7238 248.795 50.7006H-55.2045C-55.2045 16.911 -42.2088 -29.8035 0.139801 -63.496C35.7549 -91.8313 72.331 -94.5946 85.8655 -94.8662L91.9635 209.073ZM248.795 50.7006C248.795 10.2243 232.611 -38.9565 188.424 -73.4894C150.234 -103.336 109.846 -107.288 89.0181 -107.288V196.712C73.3074 196.712 36.8079 193.845 1.22726 166.038C-40.3498 133.544 -55.2045 87.3576 -55.2045 50.7006H248.795ZM89.0181 -107.288H88.9996V196.712H89.0181V-107.288ZM-30.0547 15.5921L-31.6919 19.9284L252.711 127.311L254.348 122.974L-30.0547 15.5921ZM-31.5938 19.669C-29.6637 14.5854 -20.4636 -9.80428 3.97057 -32.5857C17.6852 -45.3727 34.7317 -56.3165 54.6665 -63.4643C74.0108 -70.4004 91.3775 -72.0824 104.062 -72.0824V231.918C136.91 231.918 177.37 221.379 211.28 189.763C237.79 165.046 248.84 137.507 252.613 127.57L-31.5938 19.669ZM104.062 -72.0824C117.629 -72.0824 130.168 -70.1607 141.259 -67.1959C151.171 -64.5461 158.476 -61.389 159.324 -61.0306L41.0232 219.007C47.5163 221.75 71.4468 231.918 104.062 231.918V-72.0824ZM244.512 126.636L245.33 124.159L-43.3476 28.8634L-44.1653 31.3404L244.512 126.636ZM26.5989 209.062C47.5373 220.813 73.9451 229.336 104.062 229.336V-74.6639C131.922 -74.6639 156.288 -66.7573 175.384 -56.04L26.5989 209.062ZM104.062 229.336C140.744 229.336 183.265 215.957 216.349 181.132C239.037 157.249 248.295 131.895 250.582 125.757L-34.2733 19.5815C-33.4175 17.2855 -25.4378 -5.73535 -4.05406 -28.2451C8.70504 -41.6761 26.1908 -54.9872 48.7415 -63.9992C70.8283 -72.8258 90.6326 -74.6639 104.062 -74.6639V229.336ZM250.262 126.608L251.594 123.098L-32.6215 15.2219L-33.9535 18.7312L250.262 126.608ZM251.139 14.0363L243.465 -5.68318L-39.8396 104.564L-32.1658 124.284L251.139 14.0363ZM101.813 201.441H104.68V-102.559H101.813V201.441ZM-37.5087 103.165L-31.2668 119.685L253.111 12.2361L246.869 -4.28394L-37.5087 103.165ZM253.394 118.93L259.536 102.41L-25.4076 -3.52925L-31.5496 12.9907L253.394 118.93ZM117.064 201.441H119.826V-102.559H117.064V201.441ZM-21.9282 -5.42013L-29.6076 14.4225L253.901 124.144L261.581 104.301L-21.9282 -5.42013ZM-22.972 44.815V69.4923H281.028V44.815H-22.972ZM129.028 -82.5077H126.266V221.492H129.028V-82.5077ZM278.266 69.4923V44.815H-25.734V69.4923H278.266ZM126.266 -107.185H116.75V196.815H126.266V-107.185ZM268.75 44.815V42.1307H-35.2504V44.815H268.75ZM116.75 194.131H138.543V-109.869H116.75V194.131ZM-13.4574 42.1307V44.7123H290.543V42.1307H-13.4574ZM138.543 -107.288H129.026V196.712H138.543V-107.288ZM-22.9492 47.4493L-22.9473 47.552L281.003 42.078L281.002 41.9753L-22.9492 47.4493ZM146.32 -81.9944C182.926 -81.9944 221.619 -67.5083 250.442 -36.6956C278.796 -6.38485 288.7 29.9413 288.7 59.4739H-15.3C-15.3 95.4092 -3.34871 137.001 28.4332 170.977C60.6847 205.455 104.188 222.006 146.32 222.006V-81.9944ZM288.7 59.4739C288.7 89.9401 278.242 126.14 250.151 155.967C221.703 186.174 183.391 200.84 146.505 200.84V-103.16C104.009 -103.16 60.7953 -86.379 28.8467 -52.4559C-2.74446 -18.9122 -15.3 22.6051 -15.3 59.4739H288.7ZM146.505 200.84C109.681 200.84 70.536 186.162 41.5458 154.695C13.2939 124.029 4.02139 87.8424 4.02139 59.3713H308.021C308.021 24.4974 296.754 -16.9555 265.125 -51.2863C232.758 -86.4185 188.855 -103.16 146.505 -103.16V200.84ZM4.02139 59.3713C4.02139 28.9196 14.4581 -7.08404 42.2707 -36.7923C70.435 -66.8762 108.747 -81.9944 146.3 -81.9944V222.006C245.058 222.006 308.021 140.125 308.021 59.3713H4.02139ZM146.3 222.006H146.32V-81.9944H146.3V222.006ZM146.422 -100.661C99.9238 -100.661 55.6952 -80.3669 25.4342 -44.6765C-3.05529 -11.0755 -12.5343 27.7592 -12.5343 59.3918H291.466C291.466 86.3782 283.367 121.187 257.307 151.923C229.475 184.748 188.724 203.339 146.422 203.339V-100.661ZM-12.5343 59.3918C-12.5343 91.1787 -2.96764 130.75 26.5288 164.805C57.5537 200.625 101.744 219.549 146.525 219.549V-84.4509C187.115 -84.4509 227.775 -67.1788 256.318 -34.2244C283.333 -3.03465 291.466 32.4582 291.466 59.3918H-12.5343ZM146.525 219.549C193.05 219.549 237.257 199.234 267.493 163.586C295.973 130.009 305.481 91.1788 305.481 59.4963H1.48134C1.48134 32.4599 9.60731 -2.34366 35.6575 -33.0561C63.4643 -65.8395 104.193 -84.4509 146.525 -84.4509V219.549ZM305.481 59.4963C305.481 27.7096 295.915 -11.8619 266.418 -45.917C235.393 -81.737 191.203 -100.661 146.422 -100.661V203.339C105.833 203.339 65.1719 186.067 36.6287 153.112C9.61411 121.923 1.48134 86.4297 1.48134 59.4963H305.481ZM162.898 -82.5096H160.238V221.49H162.898V-82.5096ZM312.238 69.4905V49.4611H8.23754V69.4905H312.238ZM189.238 198.669L191.898 198.152L133.897 -100.264L131.237 -99.7467L189.238 198.669ZM10.8979 48.9441V53.1777H314.898V48.9441H10.8979ZM297.978 122.873C291.348 135.721 278.976 154.723 257.092 171.288C233.379 189.237 202.667 200.944 168.731 200.944V-103.056C87.4091 -103.056 43.3871 -46.6927 27.8182 -16.518L297.978 122.873ZM167.464 200.939C142.895 200.734 118.845 194.283 97.5476 182.273L246.87 -82.5261C223.446 -95.7354 197.004 -102.826 169.998 -103.051L167.464 200.939ZM25.7178 9.32304L25.0037 11.9028L317.986 93.004L318.7 90.4243L25.7178 9.32304ZM252.732 -76.0166C224.467 -93.8895 194.357 -100.372 168.424 -100.372V203.628C144.747 203.628 116.887 197.762 90.2577 180.923L252.732 -76.0166ZM168.424 -100.372C74.3947 -100.372 33.6859 -26.5583 24.3423 -5.93451L301.25 119.518C296.802 129.336 286.708 148.494 266.287 166.596C243.426 186.862 209.573 203.628 168.424 203.628V-100.372ZM10.7961 56.7915V69.4905H314.796V56.7915H10.7961ZM162.796 221.49H162.898V-82.5096H162.796V221.49ZM182.748 -81.9944C218.927 -81.9944 258.648 -67.6352 288.162 -35.1514C316.334 -4.14482 325.027 31.9463 325.027 59.4739H21.0266C21.0266 93.197 31.6132 134.554 63.1622 169.278C96.0533 205.478 140.635 222.006 182.748 222.006V-81.9944ZM325.027 59.4739C325.027 89.4497 314.914 125.148 287.486 154.873C259.395 185.316 220.805 200.84 182.748 200.84V-103.16C139.063 -103.16 95.6117 -85.4689 64.0672 -51.283C33.1856 -17.8155 21.0266 23.2 21.0266 59.4739H325.027ZM182.748 200.84C157.885 200.84 130.652 194.027 105.916 177.884L272.064 -76.6957C243.851 -95.1088 212.521 -103.16 182.748 -103.16V200.84ZM42.9673 8.38883L42.2513 10.8659L334.297 95.2766L335.013 92.7995L42.9673 8.38883ZM273.077 -73.0734C247.035 -90.5804 215.779 -100.581 182.748 -100.581V203.419C154.017 203.419 126.442 194.658 103.471 179.216L273.077 -73.0734ZM182.748 -100.581C140.09 -100.581 94.9463 -83.2351 62.5298 -45.63C32.2155 -10.4635 23.7924 29.6479 23.7924 59.3713H327.792C327.792 84.344 320.698 120.479 292.788 152.858C262.775 187.674 221.109 203.419 182.748 203.419V-100.581ZM23.7924 59.3713C23.7924 91.2635 33.4467 131.408 63.7678 165.776C95.5013 201.746 139.68 219.424 182.852 219.424V-84.576C221.831 -84.576 262.481 -68.4976 291.732 -35.3409C319.572 -3.78527 327.792 32.3324 327.792 59.3713H23.7924ZM183.559 219.422C214.725 219.277 245.101 210.16 271.113 193.283L105.643 -61.7384C128.358 -76.4768 154.899 -84.4476 182.145 -84.5743L183.559 219.422ZM39.5298 96.5655L40.0422 99.0425L337.738 37.4557L337.226 34.9786L39.5298 96.5655ZM105.816 -59.0408C130.491 -75.1442 157.606 -81.9944 182.748 -81.9944V222.006C212.397 222.006 243.812 213.912 271.964 195.539L105.816 -59.0408ZM357.566 69.4905V56.5843H53.5662V69.4905H357.566ZM357.566 56.5843C357.566 38.3525 354.53 -5.75343 319.949 -46.1284C281.143 -91.4364 230.674 -100.456 201.37 -100.456V203.544C174.831 203.544 126.459 195.29 89.0605 151.625C55.8867 112.893 53.5662 71.3068 53.5662 56.5843H357.566ZM201.37 -100.456C149.083 -100.456 108.586 -75.5341 84.0427 -49.2047L306.414 158.08C285.149 180.893 249.155 203.544 201.37 203.544V-100.456ZM43.2284 54.4377V69.6136H347.228V54.4377H43.2284ZM195.228 -82.3864H192.568V221.614H195.228V-82.3864ZM344.568 69.6136V40.083H40.5682V69.6136H344.568ZM221.569 189.291L224.229 188.774L166.228 -109.642L163.567 -109.125L221.569 189.291ZM43.2284 39.5659V52.1622H347.228V39.5659H43.2284ZM303.19 159.159C291.095 171.363 277.004 181.103 261.666 188.095C246.94 194.808 226.657 200.961 202.085 200.961V-103.039C152.474 -103.039 112.593 -80.3892 87.2673 -54.835L303.19 159.159ZM202.085 200.961C170.798 200.961 128.45 190.025 95.0895 153.965C63.1596 119.453 56.3265 80.1146 56.3265 55.7742H360.326C360.326 27.0975 352.317 -15.6471 318.238 -52.4826C282.729 -90.8643 237.26 -103.039 202.085 -103.039V200.961ZM56.3265 55.7742V69.5054H360.326V55.7742H56.3265ZM209.149 -82.4924L206.389 -82.5073L204.744 221.488L207.504 221.503L209.149 -82.4924Z" fill="white" mask="url(#path-3-inside-1_151_316)"/>
</svg>
