<svg width="55" height="66" viewBox="0 0 55 66" fill="none" xmlns="http://www.w3.org/2000/svg">
<path d="M46.1963 19.3034L41.4699 24.0725C49.3473 32.0209 49.3473 44.9656 41.4699 52.914C33.5924 60.8625 20.7633 60.8625 12.8858 52.914C5.00832 44.9656 5.00832 32.0209 12.8858 24.0725L25.4898 11.3549L27.0653 9.53815V0L7.93424 19.3034C5.42048 21.8142 3.42496 24.803 2.06309 28.0968C0.701211 31.3907 0 34.9243 0 38.4933C0 42.0623 0.701211 45.5958 2.06309 48.8897C3.42496 52.1835 5.42048 55.1723 7.93424 57.6831C10.4227 60.2195 13.3847 62.233 16.6492 63.6072C19.9136 64.9813 23.4156 65.6888 26.9528 65.6888C30.4899 65.6888 33.9919 64.9813 37.2564 63.6072C40.5208 62.233 43.4829 60.2195 45.9713 57.6831C56.7747 47.0095 56.7747 29.75 46.1963 19.3034Z" fill="#F3F3F3"/>
<path d="M36.7432 17.9407C38.7321 17.9407 40.3444 16.3139 40.3444 14.3072C40.3444 12.3004 38.7321 10.6736 36.7432 10.6736C34.7544 10.6736 33.1421 12.3004 33.1421 14.3072C33.1421 16.3139 34.7544 17.9407 36.7432 17.9407Z" fill="#F3F3F3"/>
</svg>
