<svg width="111" height="102" viewBox="0 0 111 102" fill="none" xmlns="http://www.w3.org/2000/svg">
<g clip-path="url(#clip0_151_294)">
<path d="M0.327148 50.8893C0.327148 59.4104 8.46244 67.3652 21.2884 71.849C18.7272 85.037 20.8294 95.6665 27.851 99.8084C35.0685 104.065 45.8208 101.119 56.0261 91.9946C65.974 100.75 76.0281 104.196 83.0432 100.042C90.2536 95.7731 92.4469 84.4227 89.8148 70.8231C103.174 66.3056 110.646 59.5226 110.646 50.8893C110.646 42.5657 102.496 35.3647 89.843 30.9095C92.6765 16.7478 90.2756 6.37629 82.9633 2.06339C75.9135 -2.09452 65.7427 1.52952 55.6485 10.5145C45.1472 0.97765 35.0768 -1.93408 27.7716 2.3914C20.7287 6.56113 18.7189 17.3838 21.2884 30.8159C8.89553 35.2353 0.327148 42.599 0.327148 50.8893Z" fill="#22242A"/>
<path d="M87.1631 35.3338C86.1467 34.976 85.0936 34.6374 84.0092 34.3172C84.1875 33.5733 84.351 32.8389 84.4965 32.1171C86.8839 20.2641 85.3229 10.7152 79.9927 7.57133C74.8816 4.55676 66.5229 7.69993 58.0809 15.2142C57.2691 15.9367 56.4551 16.7017 55.6414 17.5035C55.0992 16.973 54.5579 16.4604 54.018 15.9701C45.1706 7.93538 36.3024 4.54944 30.9774 7.70243C25.8712 10.7257 24.3591 19.7026 26.5081 30.9358C26.7156 32.0208 26.9582 33.1288 27.2325 34.2554C25.9774 34.6198 24.7658 35.0082 23.6064 35.4215C13.2338 39.1203 6.60938 44.9172 6.60938 50.9302C6.60938 57.1404 13.7207 63.3693 24.5246 67.1462C25.3772 67.4442 26.2619 67.7261 27.1736 67.9936C26.8776 69.212 26.6202 70.406 26.4042 71.5706C24.3551 82.6088 25.9553 91.3736 31.0479 94.3778C36.308 97.4803 45.1361 94.2913 53.7323 86.6058C54.4117 85.9983 55.0936 85.354 55.7767 84.6787C56.6621 85.5508 57.5461 86.3761 58.4254 87.1502C66.7518 94.4788 74.9756 97.438 80.0635 94.4254C85.3184 91.314 87.0262 81.8985 84.809 70.4431C84.6397 69.5682 84.4426 68.6744 84.2213 67.7648C84.8413 67.5773 85.4499 67.3838 86.0433 67.1826C97.275 63.3764 104.583 57.2233 104.583 50.9302C104.583 44.8955 97.7446 39.0595 87.1631 35.3338Z" fill="#F3F3F3"/>
<path d="M84.7269 63.1192C84.1912 63.3006 83.6415 63.4759 83.0813 63.6459C81.8414 59.631 80.168 55.3618 78.1201 50.951C80.0743 46.6452 81.6831 42.4306 82.8883 38.4418C83.8905 38.7384 84.8633 39.0513 85.8006 39.3814C94.8669 42.5736 100.397 47.2934 100.397 50.9301C100.397 54.8039 94.4246 59.8326 84.7269 63.1192ZM80.703 71.2745C81.6834 76.3399 81.8234 80.9196 81.174 84.4998C80.5905 87.7168 79.417 89.8617 77.9661 90.7207C74.8785 92.5486 68.2757 90.1726 61.1548 83.9052C60.3384 83.1867 59.5162 82.4195 58.6913 81.6076C61.4519 78.5195 64.211 74.9296 66.9038 70.9425C71.64 70.5127 76.1148 69.8099 80.1727 68.8505C80.3725 69.675 80.55 70.4838 80.703 71.2745ZM40.0105 90.4048C36.9939 91.4945 34.5913 91.5257 33.139 90.6692C30.0486 88.8461 28.7639 81.8088 30.5163 72.3689C30.7171 71.2878 30.956 70.1773 31.2313 69.0422C35.2448 69.9499 39.6867 70.6031 44.4343 70.9967C47.1452 74.8982 49.984 78.4842 52.8447 81.6242C52.2197 82.2413 51.5971 82.8289 50.978 83.3825C47.1768 86.781 43.3676 89.1921 40.0105 90.4048ZM25.8781 63.0955C21.1008 61.4254 17.1555 59.2549 14.4512 56.8863C12.0213 54.7579 10.7944 52.6448 10.7944 50.9301C10.7944 47.2813 16.1132 42.6272 24.9839 39.4638C26.0603 39.08 27.187 38.7183 28.3563 38.3785C29.5823 42.4574 31.1905 46.7219 33.1313 51.0343C31.1654 55.4107 29.5343 59.7432 28.2963 63.8699C27.4627 63.6249 26.6551 63.3669 25.8781 63.0955ZM30.6154 30.1137C28.7742 20.4893 29.997 13.2291 33.0741 11.4073C36.3518 9.46646 43.5997 12.2336 51.2387 19.1712C51.727 19.6146 52.2172 20.0787 52.7088 20.5589C49.8622 23.6851 47.0495 27.2443 44.3626 31.1227C39.7549 31.5595 35.3442 32.2612 31.2889 33.2008C31.0339 32.1519 30.8081 31.1213 30.6154 30.1137ZM72.8767 40.7869C71.9072 39.0743 70.912 37.4021 69.8974 35.7756C73.0233 36.1797 76.0183 36.7163 78.8309 37.3728C77.9865 40.1407 76.934 43.0347 75.6952 46.0015C74.8065 44.2758 73.8665 42.5358 72.8767 40.7869ZM55.6426 23.6183C57.5731 25.7574 59.5064 28.1457 61.408 30.7371C59.4918 30.6445 57.5519 30.5963 55.5959 30.5963C53.6584 30.5963 51.7328 30.6434 49.8284 30.7344C51.7319 28.1671 53.6819 25.782 55.6426 23.6183ZM38.2982 40.8166C37.3298 42.534 36.4073 44.2646 35.5325 45.9983C34.3137 43.0419 33.271 40.1347 32.4193 37.3275C35.2146 36.6877 38.1955 36.1646 41.3016 35.7681C40.2726 37.4096 39.2692 39.0944 38.2982 40.8166ZM41.391 66.3976C38.1819 66.0314 35.1562 65.5352 32.3616 64.913C33.2269 62.0558 34.2926 59.0865 35.5372 56.0664C36.4142 57.7989 37.3404 59.5301 38.3148 61.2513C39.3072 63.0048 40.3356 64.7225 41.391 66.3976ZM55.7584 78.5438C53.7747 76.3547 51.7961 73.9332 49.8636 71.3285C51.7396 71.4038 53.6521 71.4423 55.5959 71.4423C57.5928 71.4423 59.5669 71.3963 61.51 71.3078C59.6022 73.9594 57.6758 76.3847 55.7584 78.5438ZM75.7351 55.9124C77.0446 58.9652 78.1485 61.919 79.025 64.7275C76.1843 65.3903 73.1173 65.9242 69.8858 66.3209C70.9029 64.6724 71.9069 62.9715 72.8934 61.2219C73.8914 59.4518 74.8391 57.679 75.7351 55.9124ZM69.268 59.0833C67.7365 61.7993 66.1642 64.392 64.568 66.8394C61.6607 67.052 58.6571 67.1615 55.5959 67.1615C52.547 67.1615 49.5813 67.0646 46.7255 66.875C45.0649 64.3956 43.4584 61.7952 41.9367 59.1066C40.419 56.4254 39.0224 53.7216 37.7567 51.0329C39.0221 48.3379 40.4153 45.631 41.9243 42.9546L41.924 42.9552C43.437 40.2716 45.0293 37.6839 46.6746 35.2199C49.5883 34.9947 52.5761 34.8771 55.5957 34.8771C58.6289 34.8771 61.6207 34.9956 64.5336 35.2228C66.1537 37.6687 67.7353 40.2481 69.2542 42.932C70.7904 45.646 72.2016 48.3349 73.4778 50.972C72.2054 53.6545 70.7974 56.3705 69.268 59.0833ZM77.9019 11.2799C81.1827 13.215 82.4586 21.0193 80.3973 31.2531C80.2658 31.9061 80.1177 32.5712 79.9569 33.2452C75.8922 32.286 71.4784 31.5722 66.8572 31.1287C64.1651 27.2077 61.3754 23.643 58.5752 20.5569C59.328 19.8162 60.0798 19.1099 60.8285 18.4433C68.0615 12.0052 74.8218 9.46325 77.9019 11.2799Z" fill="#22242A"/>
<path d="M55.5958 41.9821C60.4275 41.9821 64.3445 45.9882 64.3445 50.9302C64.3445 55.872 60.4275 59.8783 55.5958 59.8783C50.7642 59.8783 46.8472 55.872 46.8472 50.9302C46.8472 45.9882 50.7642 41.9821 55.5958 41.9821Z" fill="#F3F3F3"/>
</g>
<defs>
<clipPath id="clip0_151_294">
<rect width="111" height="102" fill="white"/>
</clipPath>
</defs>
</svg>
