<svg width="20" height="9" viewBox="0 0 20 9" fill="none" xmlns="http://www.w3.org/2000/svg">
<path d="M1.42857 0H8.57143C8.95031 0 9.31367 0.0924667 9.58158 0.257058C9.84949 0.42165 10 0.644885 10 0.877652C10 1.11042 9.84949 1.33365 9.58158 1.49825C9.31367 1.66284 8.95031 1.7553 8.57143 1.7553H1.42857C1.04969 1.7553 0.686328 1.66284 0.418419 1.49825C0.15051 1.33365 0 1.11042 0 0.877652C0 0.644885 0.15051 0.42165 0.418419 0.257058C0.686328 0.0924667 1.04969 0 1.42857 0ZM11.4286 7.02122H18.5714C18.9503 7.02122 19.3137 7.11369 19.5816 7.27828C19.8495 7.44287 20 7.6661 20 7.89887C20 8.13164 19.8495 8.35487 19.5816 8.51947C19.3137 8.68406 18.9503 8.77652 18.5714 8.77652H11.4286C11.0497 8.77652 10.6863 8.68406 10.4184 8.51947C10.1505 8.35487 10 8.13164 10 7.89887C10 7.6661 10.1505 7.44287 10.4184 7.27828C10.6863 7.11369 11.0497 7.02122 11.4286 7.02122ZM1.42857 3.51061H18.5714C18.9503 3.51061 19.3137 3.60308 19.5816 3.76767C19.8495 3.93226 20 4.15549 20 4.38826C20 4.62103 19.8495 4.84426 19.5816 5.00886C19.3137 5.17345 18.9503 5.26591 18.5714 5.26591H1.42857C1.04969 5.26591 0.686328 5.17345 0.418419 5.00886C0.15051 4.84426 0 4.62103 0 4.38826C0 4.15549 0.15051 3.93226 0.418419 3.76767C0.686328 3.60308 1.04969 3.51061 1.42857 3.51061Z" fill="white"/>
</svg>
