<svg width="16" height="16" viewBox="0 0 16 16" fill="none" xmlns="http://www.w3.org/2000/svg">
<path d="M1.14286 0H6.85714C7.16025 0 7.45094 0.168571 7.66527 0.468629C7.87959 0.768687 8 1.17565 8 1.6C8 2.02435 7.87959 2.43131 7.66527 2.73137C7.45094 3.03143 7.16025 3.2 6.85714 3.2H1.14286C0.839753 3.2 0.549062 3.03143 0.334735 2.73137C0.120408 2.43131 0 2.02435 0 1.6C0 1.17565 0.120408 0.768687 0.334735 0.468629C0.549062 0.168571 0.839753 0 1.14286 0ZM9.14286 12.8H14.8571C15.1602 12.8 15.4509 12.9686 15.6653 13.2686C15.8796 13.5687 16 13.9757 16 14.4C16 14.8243 15.8796 15.2313 15.6653 15.5314C15.4509 15.8314 15.1602 16 14.8571 16H9.14286C8.83975 16 8.54906 15.8314 8.33474 15.5314C8.12041 15.2313 8 14.8243 8 14.4C8 13.9757 8.12041 13.5687 8.33474 13.2686C8.54906 12.9686 8.83975 12.8 9.14286 12.8ZM1.14286 6.4H14.8571C15.1602 6.4 15.4509 6.56857 15.6653 6.86863C15.8796 7.16869 16 7.57565 16 8C16 8.42435 15.8796 8.83131 15.6653 9.13137C15.4509 9.43143 15.1602 9.6 14.8571 9.6H1.14286C0.839753 9.6 0.549062 9.43143 0.334735 9.13137C0.120408 8.83131 0 8.42435 0 8C0 7.57565 0.120408 7.16869 0.334735 6.86863C0.549062 6.56857 0.839753 6.4 1.14286 6.4Z" fill="white"/>
</svg>
