<svg width="43" height="46" viewBox="0 0 43 46" fill="none" xmlns="http://www.w3.org/2000/svg">
<g filter="url(#filter0_d_326_300)">
<path d="M40 19C40 28.315 31.7941 36 21.5 36C11.2059 36 3 28.315 3 19C3 9.68502 11.2059 2 21.5 2C31.7941 2 40 9.68502 40 19Z" stroke="#E80000" stroke-width="2" shape-rendering="crispEdges"/>
</g>
<g filter="url(#filter1_d_326_300)">
<path d="M18.0177 32.149C12.4523 33.8187 12.4523 29.3663 10.2261 28.8097ZM25.8094 35.4883V31.1806C25.8512 30.6499 25.7795 30.1163 25.599 29.6154C25.4186 29.1145 25.1337 28.6577 24.7631 28.2755C28.2582 27.8859 31.9314 26.5613 31.9314 20.4838C31.9311 18.9297 31.3334 17.4352 30.2618 16.3097C30.7692 14.95 30.7333 13.4472 30.1616 12.1133C30.1616 12.1133 28.8482 11.7237 25.8094 13.7607C23.2582 13.0693 20.5689 13.0693 18.0177 13.7607C14.979 11.7237 13.6655 12.1133 13.6655 12.1133C13.0938 13.4472 13.0579 14.95 13.5654 16.3097C12.4858 17.4436 11.8874 18.9516 11.8957 20.5172C11.8957 26.5502 15.5689 27.8747 19.064 28.3089C18.6978 28.6873 18.4154 29.1386 18.2351 29.6334C18.0549 30.1281 17.9808 30.6553 18.0177 31.1806V35.4883" fill="#E80000"/>
<path d="M18.0177 32.149C12.4523 33.8187 12.4523 29.3663 10.2261 28.8097M25.8094 35.4883V31.1806C25.8512 30.6499 25.7795 30.1163 25.599 29.6154C25.4186 29.1145 25.1337 28.6577 24.7631 28.2755C28.2582 27.8859 31.9314 26.5613 31.9314 20.4838C31.9311 18.9297 31.3334 17.4352 30.2618 16.3097C30.7692 14.95 30.7333 13.4472 30.1616 12.1133C30.1616 12.1133 28.8482 11.7237 25.8094 13.7607C23.2582 13.0693 20.5689 13.0693 18.0177 13.7607C14.979 11.7237 13.6655 12.1133 13.6655 12.1133C13.0938 13.4472 13.0579 14.95 13.5654 16.3097C12.4858 17.4436 11.8874 18.9516 11.8957 20.5172C11.8957 26.5502 15.5689 27.8747 19.064 28.3089C18.6978 28.6873 18.4154 29.1386 18.2351 29.6334C18.0549 30.1281 17.9808 30.6553 18.0177 31.1806V35.4883" stroke="#E80000" stroke-linecap="round" stroke-linejoin="round"/>
</g>
<defs>
<filter id="filter0_d_326_300" x="0" y="0" width="43" height="40" filterUnits="userSpaceOnUse" color-interpolation-filters="sRGB">
<feFlood flood-opacity="0" result="BackgroundImageFix"/>
<feColorMatrix in="SourceAlpha" type="matrix" values="0 0 0 0 0 0 0 0 0 0 0 0 0 0 0 0 0 0 127 0" result="hardAlpha"/>
<feOffset dy="1"/>
<feGaussianBlur stdDeviation="1"/>
<feComposite in2="hardAlpha" operator="out"/>
<feColorMatrix type="matrix" values="0 0 0 0 0.909804 0 0 0 0 0 0 0 0 0 0 0 0 0 1 0"/>
<feBlend mode="normal" in2="BackgroundImageFix" result="effect1_dropShadow_326_300"/>
<feBlend mode="normal" in="SourceGraphic" in2="effect1_dropShadow_326_300" result="shape"/>
</filter>
<filter id="filter1_d_326_300" x="4" y="11" width="34.7144" height="34.7144" filterUnits="userSpaceOnUse" color-interpolation-filters="sRGB">
<feFlood flood-opacity="0" result="BackgroundImageFix"/>
<feColorMatrix in="SourceAlpha" type="matrix" values="0 0 0 0 0 0 0 0 0 0 0 0 0 0 0 0 0 0 127 0" result="hardAlpha"/>
<feOffset dy="4"/>
<feGaussianBlur stdDeviation="2"/>
<feComposite in2="hardAlpha" operator="out"/>
<feColorMatrix type="matrix" values="0 0 0 0 0 0 0 0 0 0 0 0 0 0 0 0 0 0 0.25 0"/>
<feBlend mode="normal" in2="BackgroundImageFix" result="effect1_dropShadow_326_300"/>
<feBlend mode="normal" in="SourceGraphic" in2="effect1_dropShadow_326_300" result="shape"/>
</filter>
</defs>
</svg>
