<svg width="81" height="21" viewBox="0 0 81 21" fill="none" xmlns="http://www.w3.org/2000/svg">
<g filter="url(#filter0_d_176_1999)">
<path d="M7.89446 12.4434C4.61989 13.4257 4.61989 10.8061 3.31006 10.4786L7.89446 12.4434ZM12.4789 14.4081V11.8736C12.5034 11.5613 12.4612 11.2474 12.3551 10.9526C12.2489 10.6579 12.0813 10.3892 11.8632 10.1643C13.9197 9.93504 16.0809 9.15569 16.0809 5.57986C16.0807 4.66549 15.729 3.78618 15.0985 3.12393C15.3971 2.32396 15.3759 1.43972 15.0396 0.654907C15.0396 0.654907 14.2668 0.425687 12.4789 1.62418C10.9778 1.21736 9.39551 1.21736 7.89446 1.62418C6.10654 0.425687 5.33374 0.654907 5.33374 0.654907C4.99736 1.43972 4.97625 2.32396 5.2748 3.12393C4.63962 3.79109 4.28753 4.67835 4.29243 5.59951C4.29243 9.14914 6.45365 9.92849 8.51008 10.1839C8.29461 10.4066 8.12843 10.6721 8.02237 10.9632C7.9163 11.2543 7.87272 11.5645 7.89446 11.8736V14.4081" fill="#E80000"/>
<path d="M7.89446 12.4434C4.61989 13.4257 4.61989 10.8061 3.31006 10.4786M12.4789 14.4081V11.8736C12.5034 11.5613 12.4612 11.2474 12.3551 10.9526C12.2489 10.6579 12.0813 10.3892 11.8632 10.1643C13.9197 9.93504 16.0809 9.15569 16.0809 5.57986C16.0807 4.66549 15.729 3.78618 15.0985 3.12393C15.3971 2.32396 15.3759 1.43972 15.0396 0.654907C15.0396 0.654907 14.2668 0.425687 12.4789 1.62418C10.9778 1.21736 9.39551 1.21736 7.89446 1.62418C6.10654 0.425687 5.33374 0.654907 5.33374 0.654907C4.99736 1.43972 4.97625 2.32396 5.2748 3.12393C4.63962 3.79109 4.28753 4.67835 4.29243 5.59951C4.29243 9.14914 6.45365 9.92849 8.51008 10.1839C8.29461 10.4066 8.12843 10.6721 8.02237 10.9632C7.9163 11.2543 7.87272 11.5645 7.89446 11.8736V14.4081" stroke="#E80000" stroke-linecap="round" stroke-linejoin="round"/>
<path d="M12.5282 14.5317H7.7832" stroke="#E80000" stroke-width="2"/>
<path d="M24.6504 8.15173H25.4004C25.3613 8.51111 25.2585 8.83272 25.0918 9.11658C24.9251 9.40043 24.6895 9.62569 24.3848 9.79236C24.0801 9.95642 23.6999 10.0385 23.2441 10.0385C22.9108 10.0385 22.6074 9.97595 22.334 9.85095C22.0632 9.72595 21.8301 9.54887 21.6348 9.3197C21.4395 9.08793 21.2884 8.81059 21.1816 8.48767C21.0775 8.16215 21.0254 7.80017 21.0254 7.40173V6.83533C21.0254 6.43689 21.0775 6.07621 21.1816 5.7533C21.2884 5.42778 21.4408 5.14913 21.6387 4.91736C21.8392 4.68559 22.0801 4.5072 22.3613 4.3822C22.6426 4.2572 22.959 4.1947 23.3105 4.1947C23.7402 4.1947 24.1035 4.27543 24.4004 4.43689C24.6973 4.59835 24.9277 4.82231 25.0918 5.10876C25.2585 5.39262 25.3613 5.72205 25.4004 6.09705H24.6504C24.6139 5.83142 24.5462 5.60356 24.4473 5.41345C24.3483 5.22074 24.2077 5.07231 24.0254 4.96814C23.8431 4.86397 23.6048 4.81189 23.3105 4.81189C23.0579 4.81189 22.8353 4.86007 22.6426 4.95642C22.4525 5.05278 22.2923 5.18949 22.1621 5.36658C22.0345 5.54366 21.9382 5.7559 21.873 6.0033C21.8079 6.25069 21.7754 6.52543 21.7754 6.82751V7.40173C21.7754 7.68038 21.804 7.9421 21.8613 8.18689C21.9212 8.43168 22.0111 8.64653 22.1309 8.83142C22.2507 9.01632 22.403 9.16215 22.5879 9.26892C22.7728 9.37309 22.9915 9.42517 23.2441 9.42517C23.5645 9.42517 23.8197 9.37439 24.0098 9.27283C24.1999 9.17126 24.3431 9.02543 24.4395 8.83533C24.5384 8.64522 24.6087 8.41736 24.6504 8.15173ZM27.041 3.96033V9.96033H26.3184V3.96033H27.041ZM26.8691 7.68689L26.5684 7.67517C26.571 7.38611 26.6139 7.11918 26.6973 6.87439C26.7806 6.62699 26.8978 6.41215 27.0488 6.22986C27.1999 6.04757 27.3796 5.90694 27.5879 5.80798C27.7988 5.70642 28.0319 5.65564 28.2871 5.65564C28.4954 5.65564 28.6829 5.68429 28.8496 5.74158C29.0163 5.79626 29.1582 5.88481 29.2754 6.0072C29.3952 6.1296 29.4863 6.28845 29.5488 6.48376C29.6113 6.67647 29.6426 6.91215 29.6426 7.1908V9.96033H28.916V7.18298C28.916 6.96163 28.8835 6.78455 28.8184 6.65173C28.7533 6.51632 28.6582 6.41866 28.5332 6.35876C28.4082 6.29626 28.2546 6.26501 28.0723 6.26501C27.8926 6.26501 27.7285 6.30278 27.5801 6.3783C27.4342 6.45382 27.3079 6.55798 27.2012 6.6908C27.097 6.82361 27.015 6.97595 26.9551 7.14783C26.8978 7.3171 26.8691 7.49679 26.8691 7.68689ZM32.4785 10.0385C32.1842 10.0385 31.9173 9.98897 31.6777 9.89001C31.4408 9.78845 31.2363 9.64653 31.0645 9.46423C30.8952 9.28194 30.765 9.0658 30.6738 8.8158C30.5827 8.5658 30.5371 8.29236 30.5371 7.99548V7.83142C30.5371 7.48767 30.5879 7.18168 30.6895 6.91345C30.791 6.64262 30.929 6.41345 31.1035 6.22595C31.278 6.03845 31.4759 5.89653 31.6973 5.80017C31.9186 5.70382 32.1478 5.65564 32.3848 5.65564C32.6868 5.65564 32.9473 5.70772 33.166 5.81189C33.3874 5.91606 33.5684 6.06189 33.709 6.24939C33.8496 6.43429 33.9538 6.65304 34.0215 6.90564C34.0892 7.15564 34.123 7.42908 34.123 7.72595V8.05017H30.9668V7.46033H33.4004V7.40564C33.39 7.21814 33.3509 7.03585 33.2832 6.85876C33.2181 6.68168 33.1139 6.53585 32.9707 6.42126C32.8275 6.30668 32.6322 6.24939 32.3848 6.24939C32.2207 6.24939 32.0697 6.28455 31.9316 6.35486C31.7936 6.42257 31.6751 6.52413 31.5762 6.65955C31.4772 6.79496 31.4004 6.96033 31.3457 7.15564C31.291 7.35095 31.2637 7.57621 31.2637 7.83142V7.99548C31.2637 8.196 31.291 8.38481 31.3457 8.56189C31.403 8.73637 31.485 8.89001 31.5918 9.02283C31.7012 9.15564 31.8327 9.25981 31.9863 9.33533C32.1426 9.41085 32.3197 9.44861 32.5176 9.44861C32.7728 9.44861 32.9889 9.39653 33.166 9.29236C33.3431 9.18819 33.498 9.04887 33.6309 8.87439L34.0684 9.22205C33.9772 9.36007 33.8613 9.49158 33.7207 9.61658C33.5801 9.74158 33.4069 9.84314 33.2012 9.92126C32.998 9.99939 32.7572 10.0385 32.4785 10.0385ZM36.6582 9.4447C36.8301 9.4447 36.9889 9.40955 37.1348 9.33923C37.2806 9.26892 37.4004 9.17257 37.4941 9.05017C37.5879 8.92517 37.6413 8.78324 37.6543 8.62439H38.3418C38.3288 8.87439 38.2441 9.10746 38.0879 9.32361C37.9342 9.53715 37.7324 9.71033 37.4824 9.84314C37.2324 9.97335 36.9577 10.0385 36.6582 10.0385C36.3405 10.0385 36.0632 9.98246 35.8262 9.87048C35.5918 9.7585 35.3965 9.60486 35.2402 9.40955C35.0866 9.21423 34.9707 8.99028 34.8926 8.73767C34.8171 8.48246 34.7793 8.21293 34.7793 7.92908V7.76501C34.7793 7.48116 34.8171 7.21293 34.8926 6.96033C34.9707 6.70512 35.0866 6.47986 35.2402 6.28455C35.3965 6.08923 35.5918 5.93559 35.8262 5.82361C36.0632 5.71163 36.3405 5.65564 36.6582 5.65564C36.9889 5.65564 37.278 5.72335 37.5254 5.85876C37.7728 5.99158 37.9668 6.17387 38.1074 6.40564C38.2507 6.63481 38.3288 6.89522 38.3418 7.18689H37.6543C37.6413 7.01241 37.5918 6.85486 37.5059 6.71423C37.4225 6.57361 37.3079 6.46163 37.1621 6.3783C37.0189 6.29236 36.8509 6.24939 36.6582 6.24939C36.4368 6.24939 36.2507 6.29366 36.0996 6.3822C35.9512 6.46814 35.8327 6.58533 35.7441 6.73376C35.6582 6.8796 35.5957 7.04236 35.5566 7.22205C35.5202 7.39913 35.502 7.58012 35.502 7.76501V7.92908C35.502 8.11397 35.5202 8.29626 35.5566 8.47595C35.5931 8.65564 35.6543 8.8184 35.7402 8.96423C35.8288 9.11007 35.9473 9.22725 36.0957 9.3158C36.2467 9.40173 36.4342 9.4447 36.6582 9.4447ZM39.8809 3.96033V9.96033H39.1543V3.96033H39.8809ZM42.4629 5.73376L40.6191 7.70642L39.5879 8.77673L39.5293 8.0072L40.2676 7.12439L41.5801 5.73376H42.4629ZM41.8027 9.96033L40.2949 7.9447L40.6699 7.30017L42.6543 9.96033H41.8027ZM45.541 4.27283H46.2715L48.1348 8.90955L49.9941 4.27283H50.7285L48.416 9.96033H47.8457L45.541 4.27283ZM45.3027 4.27283H45.9473L46.0527 7.74158V9.96033H45.3027V4.27283ZM50.3184 4.27283H50.9629V9.96033H50.2129V7.74158L50.3184 4.27283ZM53.9316 10.0385C53.6374 10.0385 53.3704 9.98897 53.1309 9.89001C52.8939 9.78845 52.6895 9.64653 52.5176 9.46423C52.3483 9.28194 52.2181 9.0658 52.127 8.8158C52.0358 8.5658 51.9902 8.29236 51.9902 7.99548V7.83142C51.9902 7.48767 52.041 7.18168 52.1426 6.91345C52.2441 6.64262 52.3822 6.41345 52.5566 6.22595C52.7311 6.03845 52.929 5.89653 53.1504 5.80017C53.3717 5.70382 53.6009 5.65564 53.8379 5.65564C54.14 5.65564 54.4004 5.70772 54.6191 5.81189C54.8405 5.91606 55.0215 6.06189 55.1621 6.24939C55.3027 6.43429 55.4069 6.65304 55.4746 6.90564C55.5423 7.15564 55.5762 7.42908 55.5762 7.72595V8.05017H52.4199V7.46033H54.8535V7.40564C54.8431 7.21814 54.804 7.03585 54.7363 6.85876C54.6712 6.68168 54.5671 6.53585 54.4238 6.42126C54.2806 6.30668 54.0853 6.24939 53.8379 6.24939C53.6738 6.24939 53.5228 6.28455 53.3848 6.35486C53.2467 6.42257 53.1283 6.52413 53.0293 6.65955C52.9303 6.79496 52.8535 6.96033 52.7988 7.15564C52.7441 7.35095 52.7168 7.57621 52.7168 7.83142V7.99548C52.7168 8.196 52.7441 8.38481 52.7988 8.56189C52.8561 8.73637 52.9382 8.89001 53.0449 9.02283C53.1543 9.15564 53.2858 9.25981 53.4395 9.33533C53.5957 9.41085 53.7728 9.44861 53.9707 9.44861C54.2259 9.44861 54.4421 9.39653 54.6191 9.29236C54.7962 9.18819 54.9512 9.04887 55.084 8.87439L55.5215 9.22205C55.4303 9.36007 55.3145 9.49158 55.1738 9.61658C55.0332 9.74158 54.86 9.84314 54.6543 9.92126C54.4512 9.99939 54.2103 10.0385 53.9316 10.0385ZM58.2129 7.89392V7.80408C58.2129 7.49939 58.2572 7.21684 58.3457 6.95642C58.4342 6.6934 58.5618 6.46554 58.7285 6.27283C58.8952 6.07751 59.097 5.92647 59.334 5.8197C59.571 5.71033 59.8366 5.65564 60.1309 5.65564C60.4277 5.65564 60.6947 5.71033 60.9316 5.8197C61.1712 5.92647 61.3743 6.07751 61.541 6.27283C61.7103 6.46554 61.8392 6.6934 61.9277 6.95642C62.0163 7.21684 62.0605 7.49939 62.0605 7.80408V7.89392C62.0605 8.19861 62.0163 8.48116 61.9277 8.74158C61.8392 9.00199 61.7103 9.22986 61.541 9.42517C61.3743 9.61788 61.1725 9.76892 60.9355 9.8783C60.7012 9.98507 60.4355 10.0385 60.1387 10.0385C59.8418 10.0385 59.5749 9.98507 59.3379 9.8783C59.1009 9.76892 58.8978 9.61788 58.7285 9.42517C58.5618 9.22986 58.4342 9.00199 58.3457 8.74158C58.2572 8.48116 58.2129 8.19861 58.2129 7.89392ZM58.9355 7.80408V7.89392C58.9355 8.10486 58.9603 8.30408 59.0098 8.49158C59.0592 8.67647 59.1335 8.84054 59.2324 8.98376C59.334 9.12699 59.4603 9.24028 59.6113 9.32361C59.7624 9.40434 59.9382 9.4447 60.1387 9.4447C60.3366 9.4447 60.5098 9.40434 60.6582 9.32361C60.8092 9.24028 60.9342 9.12699 61.0332 8.98376C61.1322 8.84054 61.2064 8.67647 61.2559 8.49158C61.3079 8.30408 61.334 8.10486 61.334 7.89392V7.80408C61.334 7.59574 61.3079 7.39913 61.2559 7.21423C61.2064 7.02673 61.1309 6.86137 61.0293 6.71814C60.9303 6.57231 60.8053 6.45772 60.6543 6.37439C60.5059 6.29106 60.3314 6.24939 60.1309 6.24939C59.9329 6.24939 59.7585 6.29106 59.6074 6.37439C59.459 6.45772 59.334 6.57231 59.2324 6.71814C59.1335 6.86137 59.0592 7.02673 59.0098 7.21423C58.9603 7.39913 58.9355 7.59574 58.9355 7.80408ZM65.5527 8.98376V5.73376H66.2793V9.96033H65.5879L65.5527 8.98376ZM65.6895 8.09314L65.9902 8.08533C65.9902 8.36658 65.9603 8.62699 65.9004 8.86658C65.8431 9.10356 65.7493 9.30929 65.6191 9.48376C65.4889 9.65824 65.3184 9.79496 65.1074 9.89392C64.8965 9.99028 64.64 10.0385 64.3379 10.0385C64.1322 10.0385 63.9434 10.0085 63.7715 9.94861C63.6022 9.88871 63.4564 9.79626 63.334 9.67126C63.2116 9.54626 63.1165 9.3835 63.0488 9.18298C62.9837 8.98246 62.9512 8.74158 62.9512 8.46033V5.73376H63.6738V8.46814C63.6738 8.65824 63.6947 8.8158 63.7363 8.9408C63.7806 9.06319 63.8392 9.16085 63.9121 9.23376C63.9876 9.30408 64.071 9.35356 64.1621 9.3822C64.2559 9.41085 64.3522 9.42517 64.4512 9.42517C64.7585 9.42517 65.002 9.36658 65.1816 9.24939C65.3613 9.1296 65.4902 8.96944 65.5684 8.76892C65.6491 8.5658 65.6895 8.34054 65.6895 8.09314ZM69.1504 5.73376V6.28845H66.8652V5.73376H69.1504ZM67.6387 4.70642H68.3613V8.91345C68.3613 9.05668 68.3835 9.16475 68.4277 9.23767C68.472 9.31059 68.5293 9.35876 68.5996 9.3822C68.6699 9.40564 68.7454 9.41736 68.8262 9.41736C68.8861 9.41736 68.9486 9.41215 69.0137 9.40173C69.0814 9.38871 69.1322 9.3783 69.166 9.37048L69.1699 9.96033C69.1126 9.97856 69.0371 9.99548 68.9434 10.0111C68.8522 10.0293 68.7415 10.0385 68.6113 10.0385C68.4342 10.0385 68.2715 10.0033 68.123 9.93298C67.9746 9.86267 67.8561 9.74548 67.7676 9.58142C67.6816 9.41475 67.6387 9.1908 67.6387 8.90955V4.70642ZM70.8574 4.27283L70.8066 8.35486H70.1543L70.0996 4.27283H70.8574ZM70.0762 9.59705C70.0762 9.47986 70.1113 9.3809 70.1816 9.30017C70.2546 9.21944 70.3613 9.17908 70.502 9.17908C70.64 9.17908 70.7454 9.21944 70.8184 9.30017C70.8939 9.3809 70.9316 9.47986 70.9316 9.59705C70.9316 9.70903 70.8939 9.80538 70.8184 9.88611C70.7454 9.96684 70.64 10.0072 70.502 10.0072C70.3613 10.0072 70.2546 9.96684 70.1816 9.88611C70.1113 9.80538 70.0762 9.70903 70.0762 9.59705Z" fill="#37383C"/>
</g>
<defs>
<filter id="filter0_d_176_1999" x="0" y="0" width="72.9316" height="20.718" filterUnits="userSpaceOnUse" color-interpolation-filters="sRGB">
<feFlood flood-opacity="0" result="BackgroundImageFix"/>
<feColorMatrix in="SourceAlpha" type="matrix" values="0 0 0 0 0 0 0 0 0 0 0 0 0 0 0 0 0 0 127 0" result="hardAlpha"/>
<feOffset dy="3"/>
<feGaussianBlur stdDeviation="1"/>
<feComposite in2="hardAlpha" operator="out"/>
<feColorMatrix type="matrix" values="0 0 0 0 0 0 0 0 0 0 0 0 0 0 0 0 0 0 0.25 0"/>
<feBlend mode="normal" in2="BackgroundImageFix" result="effect1_dropShadow_176_1999"/>
<feBlend mode="normal" in="SourceGraphic" in2="effect1_dropShadow_176_1999" result="shape"/>
</filter>
</defs>
</svg>
